<svg xmlns="http://www.w3.org/2000/svg" width="30.327" height="30.323" viewBox="0 0 30.327 30.323">
  <g id="account_icon" transform="translate(-444.333 -158.452)">
    <path id="Path_195" data-name="Path 195" d="M468.052,169.92h.391c1.551,0,3.1,0,4.653,0a1.47,1.47,0,0,1,1.561,1.558q.006,7.871,0,15.743a1.475,1.475,0,0,1-1.571,1.551q-14.073,0-28.146,0c-.459,0-.607-.151-.607-.616q0-12.174.01-24.347a.968.968,0,0,1,.257-.611c1.475-1.5,2.969-2.98,4.452-4.473a.884.884,0,0,1,.679-.275q8.829.006,17.659,0c.532,0,.661.127.661.652q0,5.2,0,10.389Zm-7.456,11.4H448.962c-.1,0-.191,0-.287,0-.313-.021-.5-.2-.49-.471s.194-.408.5-.418c.085,0,.17,0,.255,0h11.607v-2.731H448.889a1.507,1.507,0,0,1-.379-.025.44.44,0,0,1,.056-.859,2.127,2.127,0,0,1,.318-.007h11.66v-2.733H448.917c-.106,0-.214.006-.319,0a.411.411,0,0,1-.408-.41.417.417,0,0,1,.381-.468,1.711,1.711,0,0,1,.318-.009h11.684c0-.578,0-1.118,0-1.657a1.469,1.469,0,0,1,1.609-1.6h4.955V159.368H449.952v.363q0,1.8,0,3.6c0,.668-.07.74-.724.74h-3.976v23.8H460.6Zm.869-1.98v7.773c0,.594.183.776.784.776h10.738c.587,0,.78-.2.78-.789q0-7.758,0-15.515c0-.575-.192-.769-.76-.769h-10.77c-.6,0-.772.177-.772.782Zm-12.426-19.214L446,163.16h3.039Z" fill="#fff"/>
    <path id="Path_196" data-name="Path 196" d="M456.545,167.881c0-.229-.012-.347,0-.46.078-.638.007-1.085-.769-1.328a1.217,1.217,0,0,1-.36-2.028,2.138,2.138,0,0,1,.715-.454c.248-.1.546-.107.389-.52h.66l.026.4a2.626,2.626,0,0,1,1.489.716l-.459.623c-.171-.107-.324-.219-.491-.3s-.344-.139-.536-.215v1.352c.817.237,1.673.439,1.631,1.547-.03.783-.532,1.213-1.628,1.433l-.032.418h-.65c.121-.4-.107-.486-.43-.552a2.361,2.361,0,0,1-1.23-.69l.461-.581Zm.672-1.281v1.233c.45-.066.7-.276.725-.593S457.744,166.723,457.216,166.6Zm-.7-1.141v-1.137c-.378.109-.578.345-.546.648S456.228,165.4,456.521,165.458Z" transform="translate(-0.695 -0.306)" fill="#fff"/>
    <path id="Path_197" data-name="Path 197" d="M452.657,186.742h-3.5a2,2,0,0,1-.318-.014.408.408,0,0,1-.378-.436.4.4,0,0,1,.384-.429,2.084,2.084,0,0,1,.286-.012h7.1a1.884,1.884,0,0,1,.317.016.434.434,0,0,1,.025.851,1.6,1.6,0,0,1-.347.024Z" transform="translate(-0.272 -1.808)" fill="#fff"/>
    <path id="Path_198" data-name="Path 198" d="M468.9,172.649h4.587c.508,0,.647.136.648.638q0,1.624,0,3.249c0,.486-.145.63-.625.63h-9.269c-.465,0-.609-.145-.61-.606q0-1.624,0-3.249c0-.534.125-.661.65-.662Zm-4.359.9v2.706h8.677v-2.706Z" transform="translate(-1.274 -0.937)" fill="#fff"/>
    <path id="Path_199" data-name="Path 199" d="M471.741,185.387c0-.839,0-1.677,0-2.516,0-.447.143-.588.592-.591q.86,0,1.72,0c.468,0,.619.146.62.6q0,2.532,0,5.063c0,.461-.15.606-.617.609q-.859.006-1.72,0c-.45,0-.594-.145-.6-.589C471.739,187.107,471.741,186.248,471.741,185.387Zm.912,2.249h1.1v-4.443h-1.1Z" transform="translate(-1.808 -1.572)" fill="#fff"/>
    <path id="Path_200" data-name="Path 200" d="M473.176,181.125c-.319,0-.637.007-.956,0a.424.424,0,0,1-.475-.472c-.01-.573-.009-1.146,0-1.719a.44.44,0,0,1,.5-.488c.636-.007,1.274-.007,1.91,0a.457.457,0,0,1,.517.51c.011.551.01,1.1,0,1.655-.007.363-.169.509-.541.515C473.813,181.129,473.495,181.126,473.176,181.125Zm.587-.907v-.862h-1.106v.862Z" transform="translate(-1.808 -1.319)" fill="#fff"/>
    <path id="Path_201" data-name="Path 201" d="M469.142,181.125c-.329,0-.658,0-.987,0a.428.428,0,0,1-.469-.453c-.016-.584-.015-1.168,0-1.751a.441.441,0,0,1,.487-.474q.971-.013,1.942,0a.44.44,0,0,1,.5.489q.013.86,0,1.72a.426.426,0,0,1-.479.468C469.8,181.131,469.472,181.125,469.142,181.125Zm-.557-.918H469.7v-.851h-1.118Z" transform="translate(-1.54 -1.319)" fill="#fff"/>
    <path id="Path_202" data-name="Path 202" d="M465.1,182.28c.319,0,.638-.007.956,0a.458.458,0,0,1,.513.514q.01.828,0,1.656a.448.448,0,0,1-.511.508q-.955.01-1.911,0c-.352,0-.5-.158-.508-.506q-.008-.828,0-1.656a.452.452,0,0,1,.506-.516C464.462,182.272,464.781,182.28,465.1,182.28Zm-.545.906v.865h1.1v-.865Z" transform="translate(-1.273 -1.572)" fill="#fff"/>
    <path id="Path_203" data-name="Path 203" d="M469.133,184.96c-.319,0-.637.007-.955,0a.443.443,0,0,1-.5-.492q-.015-.843,0-1.687a.449.449,0,0,1,.5-.5q.971-.015,1.943,0a.44.44,0,0,1,.488.5c.007.562.007,1.125,0,1.687,0,.337-.152.482-.489.49S469.462,184.96,469.133,184.96Zm-.545-.912h1.106v-.856h-1.106Z" transform="translate(-1.54 -1.572)" fill="#fff"/>
    <path id="Path_204" data-name="Path 204" d="M469.148,188.81c-.318,0-.637.009-.955,0a.463.463,0,0,1-.512-.519c-.008-.551-.009-1.1,0-1.655a.453.453,0,0,1,.516-.508q.955-.013,1.911,0c.354.006.5.158.5.513q.01.827,0,1.655c0,.347-.158.5-.507.515C469.785,188.818,469.466,188.81,469.148,188.81Zm-.56-.913H469.7v-.859h-1.108Z" transform="translate(-1.54 -1.825)" fill="#fff"/>
    <path id="Path_205" data-name="Path 205" d="M465.095,181.125c-.319,0-.637.006-.956,0s-.5-.161-.5-.482q-.011-.86,0-1.72a.437.437,0,0,1,.48-.475q.988-.014,1.975,0a.44.44,0,0,1,.472.487q.014.859,0,1.72a.435.435,0,0,1-.484.47C465.753,181.132,465.424,181.125,465.095,181.125Zm.564-.908v-.861h-1.108v.861Z" transform="translate(-1.273 -1.319)" fill="#fff"/>
    <path id="Path_206" data-name="Path 206" d="M465.1,186.123c.308,0,.616-.006.924,0,.39.009.545.16.548.539.006.542.007,1.083,0,1.624a.456.456,0,0,1-.507.52q-.956.017-1.911,0a.451.451,0,0,1-.512-.511q-.008-.828,0-1.656c0-.351.151-.5.5-.515C464.459,186.115,464.777,186.124,465.1,186.123Zm-.548.907v.868h1.108v-.868Z" transform="translate(-1.273 -1.826)" fill="#fff"/>
    <path id="Path_207" data-name="Path 207" d="M457.382,166.847c.528.124.747.324.725.64s-.275.527-.725.593Z" transform="translate(-0.861 -0.554)" fill="#fff"/>
    <path id="Path_208" data-name="Path 208" d="M456.6,165.545c-.292-.062-.513-.176-.546-.488s.168-.539.546-.648Z" transform="translate(-0.773 -0.393)" fill="#fff"/>
  </g>
</svg>
