<svg xmlns="http://www.w3.org/2000/svg" width="30.364" height="34.599" viewBox="0 0 30.364 34.599">
  <g id="announcment_icon" transform="translate(-812.411 -700.989)">
    <path id="Path_3367" data-name="Path 3367" d="M869.492,944.367a.573.573,0,0,1-.078.687c-.545.588-1.064,1.107-1.587,1.589a.566.566,0,0,1-.387.146.7.7,0,0,1-.483-.2.638.638,0,0,1-.057-.887c.484-.529,1.014-1.04,1.526-1.533l.065-.062a.469.469,0,0,1,.278-.131h.018C869.229,943.993,869.388,944.144,869.492,944.367Z" transform="translate(-49.322 -220.579)" fill="#2f9336"/>
    <g id="Group_7264" data-name="Group 7264" transform="translate(812.411 700.989)">
      <path id="Path_3368" data-name="Path 3368" d="M820.17,736.616c-.1-.223-.263-.375-.708-.386h-.018a.47.47,0,0,0-.278.131l-.065.062c-.512.493-1.041,1-1.526,1.533a.638.638,0,0,0,.057.887.7.7,0,0,0,.483.2.565.565,0,0,0,.387-.146c.523-.482,1.042-1,1.587-1.589A.573.573,0,0,0,820.17,736.616Zm0,0c-.1-.223-.263-.375-.708-.386h-.018a.47.47,0,0,0-.278.131l-.065.062c-.512.493-1.041,1-1.526,1.533a.638.638,0,0,0,.057.887.7.7,0,0,0,.483.2.565.565,0,0,0,.387-.146c.523-.482,1.042-1,1.587-1.589A.573.573,0,0,0,820.17,736.616Zm0,0c-.1-.223-.263-.375-.708-.386h-.018a.47.47,0,0,0-.278.131l-.065.062c-.512.493-1.041,1-1.526,1.533a.638.638,0,0,0,.057.887.7.7,0,0,0,.483.2.565.565,0,0,0,.387-.146c.523-.482,1.042-1,1.587-1.589A.573.573,0,0,0,820.17,736.616Zm0,0c-.1-.223-.263-.375-.708-.386h-.018a.47.47,0,0,0-.278.131l-.065.062c-.512.493-1.041,1-1.526,1.533a.638.638,0,0,0,.057.887.7.7,0,0,0,.483.2.565.565,0,0,0,.387-.146c.523-.482,1.042-1,1.587-1.589A.573.573,0,0,0,820.17,736.616Zm20.344-8.994c-4.508-4.522-8.222-8.235-11.685-11.685a2.741,2.741,0,0,0-4.312,3.313.823.823,0,0,1,.115.606,22.321,22.321,0,0,1-4.069,8.955,31.8,31.8,0,0,1-2.981,3.264q-.259.257-.517.516-.614.617-1.234,1.23c-.884.879-1.8,1.788-2.675,2.7a2.633,2.633,0,0,0,0,3.673c.964,1.017,2.018,2.071,3.134,3.13a2.465,2.465,0,0,0,1.747.7,3,3,0,0,0,2.5-1.3.68.68,0,0,1,.488-.259.7.7,0,0,1,.49.253c.61.616,1.233,1.239,1.836,1.841.766.764,1.558,1.554,2.329,2.34a4.749,4.749,0,0,0,2.179,1.516h.865a.6.6,0,0,1,.218-.061h.011a2.757,2.757,0,0,0,1.262-4.687l-1.133-1.121-1.313-1.3.286-.262c.107-.1.213-.19.316-.28a5.835,5.835,0,0,0,.553-.522,2.643,2.643,0,0,0,.6-2.581,3.007,3.007,0,0,0-.977-1.462.6.6,0,0,1-.247-.482.6.6,0,0,1,.3-.443,22.3,22.3,0,0,1,7.916-3.363,1.219,1.219,0,0,1,.243-.027.958.958,0,0,1,.5.144,2.591,2.591,0,0,0,1.263.354h.078a2.746,2.746,0,0,0,2.5-1.647A2.7,2.7,0,0,0,840.514,727.622Zm-20.82,14.048-.578.579a1.4,1.4,0,0,1-1.031.425h-.041a1.353,1.353,0,0,1-.957-.431l-.789-.788c-.679-.676-1.381-1.375-2.065-2.069a1.379,1.379,0,0,1,.014-2.072q.96-.964,1.924-1.927c.968-.968,1.968-1.969,2.948-2.956a.566.566,0,0,1,.9,0c1.276,1.288,2.63,2.641,4.023,4.023a.626.626,0,0,1,.215.434.609.609,0,0,1-.211.433C822.591,738.77,821.119,740.244,819.694,741.671Zm8.365,1.746q.61.609,1.218,1.221a1.4,1.4,0,0,1,.057,2.024,1.357,1.357,0,0,1-.968.417,1.505,1.505,0,0,1-1.056-.465c-1.207-1.2-2.412-2.406-3.626-3.62l-1.712-1.712.264-.261c.136-.135.271-.267.4-.4.309-.3.6-.585.88-.882a.545.545,0,0,1,.876.01l.028.029,3.121,3.123Zm-.145-4.116c-.17.188-.343.36-.527.542l-.243.243-.263.266-.263-.266-.381-.387c-.314-.32-.611-.622-.916-.922a.526.526,0,0,1,.008-.837c.412-.376.821-.764,1.2-1.126a.585.585,0,0,1,.4-.183.54.54,0,0,1,.408.2c.083.092.172.18.268.273s.21.206.313.321A1.406,1.406,0,0,1,827.914,739.3Zm7.159-8.5a25.807,25.807,0,0,0-2.965,1,22.909,22.909,0,0,0-6.133,3.725.771.771,0,0,1-.5.222.737.737,0,0,1-.52-.262c-1.285-1.306-2.606-2.619-3.882-3.89l-.136-.135a.6.6,0,0,1-.065-.908,23.188,23.188,0,0,0,4.747-9.065.768.768,0,0,1,.063-.15l.2-.506,9.8,9.8Zm4.871-.9a1.376,1.376,0,0,1-1.334,1.066,1.484,1.484,0,0,1-1.045-.447c-.9-.891-1.805-1.8-2.683-2.679q-.562-.563-1.124-1.125l-1.672-1.672Q829.043,722,826,718.961a1.467,1.467,0,0,1-.5-1.119,1.329,1.329,0,0,1,.781-1.224,1.363,1.363,0,0,1,.606-.147,1.44,1.44,0,0,1,.837.286,1.585,1.585,0,0,1,.232.208l2.853,2.853q4.328,4.329,8.658,8.655A1.468,1.468,0,0,1,839.944,729.9Zm-20.483,6.326h-.018a.47.47,0,0,0-.278.131l-.065.062c-.512.493-1.041,1-1.526,1.533a.638.638,0,0,0,.057.887.7.7,0,0,0,.483.2.565.565,0,0,0,.387-.146c.523-.482,1.042-1,1.587-1.589a.573.573,0,0,0,.078-.687C820.067,736.393,819.907,736.242,819.462,736.23Zm.708.386c-.1-.223-.263-.375-.708-.386h-.018a.47.47,0,0,0-.278.131l-.065.062c-.512.493-1.041,1-1.526,1.533a.638.638,0,0,0,.057.887.7.7,0,0,0,.483.2.565.565,0,0,0,.387-.146c.523-.482,1.042-1,1.587-1.589A.573.573,0,0,0,820.17,736.616Zm0,0c-.1-.223-.263-.375-.708-.386h-.018a.47.47,0,0,0-.278.131l-.065.062c-.512.493-1.041,1-1.526,1.533a.638.638,0,0,0,.057.887.7.7,0,0,0,.483.2.565.565,0,0,0,.387-.146c.523-.482,1.042-1,1.587-1.589A.573.573,0,0,0,820.17,736.616Z" transform="translate(-812.411 -713.817)" fill="#114668"/>
      <path id="Path_3369" data-name="Path 3369" d="M968.75,743.2a1.376,1.376,0,0,1-1.334,1.066,1.484,1.484,0,0,1-1.045-.447c-.9-.891-1.805-1.8-2.683-2.679q-.562-.563-1.124-1.125l-1.672-1.672q-3.042-3.044-6.087-6.085a1.467,1.467,0,0,1-.5-1.119,1.329,1.329,0,0,1,.781-1.224,1.363,1.363,0,0,1,.606-.147,1.44,1.44,0,0,1,.837.286,1.6,1.6,0,0,1,.232.208l2.853,2.853q4.328,4.329,8.658,8.655A1.468,1.468,0,0,1,968.75,743.2Z" transform="translate(-941.217 -727.115)" fill="#2e9495"/>
      <path id="Path_3370" data-name="Path 3370" d="M952.975,951.009c-.17.188-.343.36-.527.542l-.244.244-.263.266-.263-.266-.381-.387c-.314-.32-.611-.622-.916-.922a.526.526,0,0,1,.008-.837c.412-.376.821-.764,1.2-1.126a.585.585,0,0,1,.4-.183.54.54,0,0,1,.408.2c.083.092.172.18.268.273s.21.206.313.321A1.406,1.406,0,0,1,952.975,951.009Z" transform="translate(-937.472 -925.526)" fill="#2e9495"/>
      <path id="Path_3371" data-name="Path 3371" d="M837.424,904.686c-1.394-1.383-2.748-2.736-4.023-4.023a.566.566,0,0,0-.9,0c-.98.987-1.98,1.988-2.948,2.956q-.963.963-1.924,1.927a1.379,1.379,0,0,0-.014,2.072c.684.694,1.386,1.393,2.065,2.069l.789.788a1.354,1.354,0,0,0,.957.431h.041a1.4,1.4,0,0,0,1.031-.425l.578-.579c1.425-1.427,2.9-2.9,4.351-4.345a.609.609,0,0,0,.211-.433A.627.627,0,0,0,837.424,904.686Zm-3.95.844c-.545.588-1.064,1.107-1.587,1.589a.566.566,0,0,1-.387.146.7.7,0,0,1-.483-.2.638.638,0,0,1-.057-.887c.484-.529,1.014-1.04,1.526-1.533l.065-.062a.47.47,0,0,1,.278-.131h.018c.445.012.605.163.708.386A.573.573,0,0,1,833.474,905.53Z" transform="translate(-825.794 -882.044)" fill="#2e9495"/>
      <path id="Path_3372" data-name="Path 3372" d="M1082.812,726.805a.7.7,0,0,1-.482-.2.631.631,0,0,1-.058-.884c.7-.74,1.442-1.465,2.161-2.166l.043-.042a.481.481,0,0,1,.341-.128h.045a.629.629,0,0,1,.611.383.6.6,0,0,1-.093.717c-.731.761-1.457,1.487-2.159,2.157A.584.584,0,0,1,1082.812,726.805Z" transform="translate(-1057.24 -721.323)" fill="#114668"/>
      <path id="Path_3373" data-name="Path 3373" d="M1105.747,792.053c-.133,0-.266,0-.4,0a.67.67,0,0,1-.666-.665.652.652,0,0,1,.658-.664c.336-.005.682-.008,1.029-.008s.7,0,1.064.008a.637.637,0,0,1,.656.66.653.653,0,0,1-.684.67l-.372,0h-1.285Z" transform="translate(-1077.723 -782.436)" fill="#114668"/>
      <path id="Path_3374" data-name="Path 3374" d="M1037.986,704.392a.674.674,0,0,1-.661-.707c0-.226,0-.458,0-.683q0-.156,0-.312t0-.313c0-.224,0-.456,0-.682a.674.674,0,0,1,.66-.707h.01a.642.642,0,0,1,.668.672c.012.68.012,1.372,0,2.056a.65.65,0,0,1-.667.675Z" transform="translate(-1016.578 -700.989)" fill="#114668"/>
    </g>
  </g>
</svg>
