<svg xmlns="http://www.w3.org/2000/svg" width="30.239" height="30.246" viewBox="0 0 30.239 30.246">
  <g id="assignment_icon" transform="translate(-95.331 -647.088)">
    <path id="Path_3359" data-name="Path 3359" d="M124.78,656.672a2.724,2.724,0,0,0-.762-.06.387.387,0,0,1-.39-.205.82.82,0,0,0-.446-.367c-.272-.112-.548-.217-.828-.31-.36-.119-.375-.141-.376-.527,0-.717.009-1.436,0-2.154-.01-.59-.228-.8-.808-.8a14.464,14.464,0,0,0-2.086.145,16.56,16.56,0,0,0-7.905,3.173c-.248.185-.255.179-.3-.132a12.634,12.634,0,0,0-.613-2.579,9.174,9.174,0,0,0-2.3-3.665,7.5,7.5,0,0,0-4.105-2.1.425.425,0,0,0-.06,0h-.382c-.26.063-.323.257-.326.491-.007.452,0,.9,0,1.356,0,.469,0,.469-.429.314l-.013,0-.016-.006a13.393,13.393,0,0,0-1.7-.488.581.581,0,0,0-.793.624c0,.1,0,.2,0,.294q0,2.52,0,5.041c0,.532-.02.55-.521.683a15.743,15.743,0,0,0-1.926.65.75.75,0,0,0-.433.334.4.4,0,0,1-.429.237c-.118-.006-.237,0-.354,0a1.063,1.063,0,0,0-1.121.795.415.415,0,0,0-.02.126v13.838a.374.374,0,0,0,.039.168.358.358,0,0,0,.408.25h.055l.062,0a.57.57,0,0,0,.423-.6c0-.148,0-.3,0-.443V658.183c0-.458.042-.5.481-.486.328.007.364.043.373.38,0,.119,0,.237,0,.354v16.1c0,.148-.006.3.007.443a.576.576,0,0,0,.551.583,3.224,3.224,0,0,0,.471.014h24.24c.109,0,.215,0,.323-.013h.036c.7.037.891-.154.894-.862v-16.49c0-.492.027-.521.446-.515.364,0,.4.042.41.407,0,.079,0,.156,0,.235v17.317c0,.1,0,.2,0,.294-.013.323-.042.353-.361.362-.477.013-.953-.013-1.428.011l-.036,0h-.011c-.128-.011-.255-.011-.383-.011q-5.015,0-10.03,0a1.319,1.319,0,0,1-.749-.2,1.934,1.934,0,0,0-2.244.011,1.056,1.056,0,0,1-.605.188q-5.975,0-11.949,0c-.412,0-.433-.024-.436-.433,0-.6.01-1.2-.007-1.8-.011-.375-.143-.522-.489-.57-.022,0-.041-.006-.065-.007h0a.4.4,0,0,0-.422.316v2.665a.4.4,0,0,0,.013.1.868.868,0,0,0,1.006.745q6.431,0,12.863,0a.82.82,0,0,0,.564-.2.93.93,0,0,1,1.332.009.746.746,0,0,0,.507.189q6.462-.006,12.922,0a.917.917,0,0,0,1.033-1.037q0-9.294,0-18.588A.987.987,0,0,0,124.78,656.672Zm-26.414.154c.5-.171,1-.349,1.508-.478.34-.086.339-.089.339.27v10.234c0,.63.033.67.636.814a13.755,13.755,0,0,1,8.209,5.7.84.84,0,0,1,.053.139,13.545,13.545,0,0,0-2.764-.953,14.68,14.68,0,0,0-4.331-.286,16.847,16.847,0,0,0-3.627.694c-.221.068-.24,0-.24-.192q0-7.815,0-15.631A.28.28,0,0,1,98.366,656.825Zm10.481,17.757q-5.192,0-10.383-.006c-.106,0-.317.115-.3-.133.01-.2-.131-.453.227-.562a16.137,16.137,0,0,1,5.423-.765,12.067,12.067,0,0,1,5.19,1.342c.05.026.109.036.138.125Zm-.428-3.427a14.407,14.407,0,0,0-7.087-4.29c-.181-.047-.234-.109-.234-.291q.006-8.287,0-16.575c0-.057.009-.116.014-.187a13.469,13.469,0,0,1,1.9.631c.145.059.154.149.152.274,0,.7,0,1.4,0,2.094v12.329c0,.633.006.641.617.791a7.588,7.588,0,0,1,5.586,5.278c.118.34.207.693.3,1.042.047.175.078.354.135.617A19.059,19.059,0,0,0,108.419,671.156Zm1.527-.953c-.11-.228-.212-.445-.32-.657a8.263,8.263,0,0,0-5.321-4.389c-.176-.05-.258-.1-.258-.3q.011-8.289.006-16.576V648.1a7.3,7.3,0,0,1,2.554,1.22,8.284,8.284,0,0,1,2.934,4.529,11.428,11.428,0,0,1,.449,3.193q0,6.444,0,12.889A.387.387,0,0,1,109.946,670.2Zm1,3.567c-.1-.062-.057-.161-.057-.238q0-8.1-.007-16.195a.512.512,0,0,1,.2-.423,15.06,15.06,0,0,1,5.9-3.1,17.825,17.825,0,0,1,3.712-.58c.209-.013.263.043.261.251-.01,1.378,0,2.754-.006,4.13a.55.55,0,0,0,.23.531.373.373,0,0,0,.225.046c.329-.029.429-.165.433-.541,0-.284.008-.57,0-.854-.006-.156.05-.194.188-.141l.027.009c.667.2.667.2.667.907q0,7.566.006,15.13c0,.271-.043.326-.317.242a16.169,16.169,0,0,0-5.484-.713,11.149,11.149,0,0,0-1.464.152,1.343,1.343,0,0,1-.349.013,13.192,13.192,0,0,1,2.711-.874,15.988,15.988,0,0,1,3.417-.372c.46,0,.6-.145.6-.6q0-4.968.006-9.938a.537.537,0,0,0-.253-.529.389.389,0,0,0-.339-.01c-.248.106-.3.232-.3.584q0,4.645,0,9.291c0,.247-.044.324-.314.336a16.45,16.45,0,0,0-9.625,3.44C110.995,673.742,110.969,673.755,110.943,673.771Zm11.755.779c-.069.069-.169.032-.254.032H111.665a8.674,8.674,0,0,1,1.626-.749,13.465,13.465,0,0,1,6.5-.567,18.263,18.263,0,0,1,2.715.628C122.688,673.951,122.826,674.419,122.7,674.55Z" transform="translate(0)" fill="#114668"/>
    <path id="Path_3360" data-name="Path 3360" d="M144.224,689.133a19.059,19.059,0,0,0-1.382-1.712,14.407,14.407,0,0,0-7.087-4.29c-.181-.047-.234-.109-.234-.291q.006-8.287,0-16.575c0-.057.009-.116.014-.187a13.469,13.469,0,0,1,1.9.631c.145.059.154.149.152.274,0,.7,0,1.4,0,2.094v12.329c0,.633.006.641.617.791a7.588,7.588,0,0,1,5.586,5.278c.118.34.207.693.3,1.042C144.136,688.691,144.166,688.87,144.224,689.133Z" transform="translate(-34.423 -16.265)" fill="#2e9495"/>
    <path id="Path_3361" data-name="Path 3361" d="M126.958,721.04q.007,8.864,0,17.727c0,.392,0,.393-.386.392-.521,0-1.042-.006-1.563-.01-.943,0-1.887.01-2.83.01q-3.892,0-7.783,0a.774.774,0,0,1-.529-.174,1.861,1.861,0,0,0-2.309.039.569.569,0,0,1-.4.135q-6.147,0-12.293,0c-.264,0-.366-.06-.357-.344.019-.647.006-1.3.006-1.946,0-.406-.093-.511-.5-.571a.347.347,0,0,0,.036-.056.3.3,0,0,0,.037-.158c-.007-.517-.009-1.035-.013-1.551V734.5c.409-.156.439-.2.439-.644v-13.1c0-.4,0-.4.389-.4.664,0,.664,0,.664.657v16.522c0,.57.112.68.689.68h24.425c.128,0,.256.006.383.01.067,0,.136-.01.205-.01.5-.006.629-.131.629-.623q0-8.437-.007-16.873c0-.3.07-.383.372-.375C127.094,720.37,126.958,720.287,126.958,721.04Z" transform="translate(-2.304 -62.744)" fill="#2e9495"/>
  </g>
</svg>
