<svg xmlns="http://www.w3.org/2000/svg" width="18" height="24" viewBox="0 0 18 24">
  <g id="attendance_icon" transform="translate(-10774 -3019)">
    <path id="notebook" d="M19,3.022V1a1,1,0,0,0-2,0V2.1A5,5,0,0,0,16,2H15V1a1,1,0,1,0-2,0V2H11V1A1,1,0,1,0,9,1V2H8a5,5,0,0,0-1,.1V1A1,1,0,1,0,5,1V3.022A4.979,4.979,0,0,0,3,7V19a5.006,5.006,0,0,0,5,5h8a5.006,5.006,0,0,0,5-5V7a4.979,4.979,0,0,0-2-3.978ZM19,19a3,3,0,0,1-3,3H8a3,3,0,0,1-3-3V7A3,3,0,0,1,8,4h8a3,3,0,0,1,3,3ZM17,8a1,1,0,0,1-1,1H8A1,1,0,0,1,8,7h8A1,1,0,0,1,17,8Zm0,4a1,1,0,0,1-1,1H8a1,1,0,0,1,0-2h8A1,1,0,0,1,17,12Zm-4,4a1,1,0,0,1-1,1H8a1,1,0,0,1,0-2h4A1,1,0,0,1,13,16Z" transform="translate(10771 3019)" fill="#fff"/>
  </g>
</svg>
