<svg xmlns="http://www.w3.org/2000/svg" width="24.014" height="24" viewBox="0 0 24.014 24">
  <g id="back_icon" transform="translate(-2378 450)">
    <g id="Group_5" data-name="Group 5" transform="translate(1557.083 -1275.326)">
      <path id="Path_23" data-name="Path 23" d="M844.082,850.326a.807.807,0,0,1-.522-.214.862.862,0,0,1-.284-.756q0-1.565,0-3.128c0-2.086-.011-4.243.015-6.361a4.847,4.847,0,0,0-4.839-4.915h-.056c-1.536.017-3.2.026-5.251.026q-1.762,0-3.525-.005t-3.528-.006h-.4l-.036,0c-.043,0-.086-.006-.129-.006a.9.9,0,0,0-.548.174h0a.614.614,0,0,0-.242.58h0a.98.98,0,0,0,.374.618c.012.01.023.019.033.029q1.05,1.053,2.1,2.106l1.83,1.833.019.019a2.4,2.4,0,0,1,.294.329.744.744,0,0,1,.063.838.844.844,0,0,1-.74.442h0a.954.954,0,0,1-.7-.357q-2.352-2.353-4.707-4.7l-2.1-2.1a.9.9,0,0,1-.288-.635.888.888,0,0,1,.284-.631q3.395-3.391,6.79-6.779a2.186,2.186,0,0,1,.266-.24.807.807,0,0,1,1.162.228c.087.138.354.555-.222,1.135q-1.184,1.19-2.371,2.375l-1.678,1.679a.367.367,0,0,1-.029.027,1.119,1.119,0,0,0-.387.636h0a.612.612,0,0,0,.6.735h13a7.035,7.035,0,0,1,1.818.227,6.264,6.264,0,0,1,4.74,5.767c.062,2.489.047,5.027.032,7.481-.006.912-.011,1.856-.013,2.784a.7.7,0,0,1-.479.691A.872.872,0,0,1,844.082,850.326Z" transform="translate(0 -1)" fill="#212121"/>
    </g>
    <rect id="Rectangle_19" data-name="Rectangle 19" width="24" height="24" transform="translate(2378 -450)" fill="none"/>
  </g>
</svg>
