<svg id="download_icon" xmlns="http://www.w3.org/2000/svg" width="24" height="24" viewBox="0 0 24 24">
  <path id="Path_3254" data-name="Path 3254" d="M9.694,17.173a2.843,2.843,0,0,0,4.022,0l3.043-3.043a.948.948,0,0,0-1.34-1.337l-2.773,2.774L12.653.948A.948.948,0,0,0,11.705,0h0a.948.948,0,0,0-.948.948l-.009,14.6L7.992,12.793a.948.948,0,1,0-1.34,1.341Z" transform="translate(0.293)" fill="#fff"/>
  <path id="Path_3255" data-name="Path 3255" d="M23,16h0a.975.975,0,0,0-1,.948v3.79a.975.975,0,0,1-1,.948H3a.975.975,0,0,1-1-.948v-3.79A.975.975,0,0,0,1,16H1a.975.975,0,0,0-1,.948v3.79a2.925,2.925,0,0,0,3,2.843H21a2.925,2.925,0,0,0,3-2.843v-3.79A.975.975,0,0,0,23,16Z" transform="translate(0 0.419)" fill="#fff"/>
</svg>
