<svg width="24" height="24" viewBox="0 0 24 24" fill="none" xmlns="http://www.w3.org/2000/svg">
<g clip-path="url(#clip0_99_268)">
<path d="M21.9927 0H17.9927C17.7275 0 17.4731 0.105357 17.2856 0.292893C17.0981 0.48043 16.9927 0.734784 16.9927 1C16.9927 1.26522 17.0981 1.51957 17.2856 1.70711C17.4731 1.89464 17.7275 2 17.9927 2H20.5787L18.1787 4.4C17.0842 3.57348 15.7694 3.08974 14.4002 3.00983C13.0311 2.92992 11.6689 3.25742 10.4857 3.951C9.59394 3.4357 8.59929 3.12387 7.57294 3.03781C6.54659 2.95176 5.51391 3.09361 4.54878 3.45322C3.58365 3.81283 2.70993 4.3813 1.99013 5.11798C1.27032 5.85465 0.722238 6.7413 0.385081 7.7145C0.0479231 8.68771 -0.0699713 9.7234 0.0398322 10.7475C0.149636 11.7716 0.484423 12.7587 1.02024 13.6383C1.55606 14.5179 2.27966 15.2682 3.13928 15.8355C3.9989 16.4029 4.97328 16.7732 5.99271 16.92V19H3.99271C3.72749 19 3.47314 19.1054 3.2856 19.2929C3.09807 19.4804 2.99271 19.7348 2.99271 20C2.99271 20.2652 3.09807 20.5196 3.2856 20.7071C3.47314 20.8946 3.72749 21 3.99271 21H5.99271V23C5.99271 23.2652 6.09807 23.5196 6.2856 23.7071C6.47314 23.8946 6.72749 24 6.99271 24C7.25793 24 7.51228 23.8946 7.69982 23.7071C7.88735 23.5196 7.99271 23.2652 7.99271 23V21H9.99271C10.2579 21 10.5123 20.8946 10.6998 20.7071C10.8874 20.5196 10.9927 20.2652 10.9927 20C10.9927 19.7348 10.8874 19.4804 10.6998 19.2929C10.5123 19.1054 10.2579 19 9.99271 19H7.99271V16.927C8.87177 16.796 9.71745 16.4973 10.4837 16.047C11.8769 16.8619 13.5093 17.1692 15.1035 16.9168C16.6976 16.6643 18.1552 15.8677 19.2284 14.6622C20.3017 13.4567 20.9245 11.9168 20.9909 10.3042C21.0573 8.69152 20.5632 7.10563 19.5927 5.816L21.9927 3.416V6C21.9927 6.26522 22.0981 6.51957 22.2856 6.70711C22.4731 6.89464 22.7275 7 22.9927 7C23.2579 7 23.5123 6.89464 23.6998 6.70711C23.8874 6.51957 23.9927 6.26522 23.9927 6V2C23.9927 1.46957 23.782 0.960859 23.4069 0.585786C23.0319 0.210714 22.5231 0 21.9927 0V0ZM1.99271 10C1.98797 9.18785 2.18229 8.38691 2.55868 7.66722C2.93508 6.94754 3.48207 6.33104 4.15182 5.87165C4.82157 5.41226 5.59368 5.12396 6.40062 5.03198C7.20756 4.93999 8.02475 5.04712 8.78071 5.344C7.62965 6.62162 6.99265 8.28033 6.99265 10C6.99265 11.7197 7.62965 13.3784 8.78071 14.656C8.02475 14.9529 7.20756 15.06 6.40062 14.968C5.59368 14.876 4.82157 14.5877 4.15182 14.1284C3.48207 13.669 2.93508 13.0525 2.55868 12.3328C2.18229 11.6131 1.98797 10.8122 1.99271 10V10ZM13.9927 15C13.0038 15 12.0371 14.7068 11.2149 14.1573C10.3926 13.6079 9.75175 12.827 9.37331 11.9134C8.99487 10.9998 8.89586 9.99445 9.08878 9.02455C9.28171 8.05464 9.75791 7.16373 10.4572 6.46447C11.1564 5.7652 12.0474 5.289 13.0173 5.09607C13.9872 4.90315 14.9925 5.00216 15.9061 5.3806C16.8198 5.75904 17.6007 6.3999 18.1501 7.22215C18.6995 8.04439 18.9927 9.01109 18.9927 10C18.9911 11.3256 18.4638 12.5964 17.5265 13.5338C16.5892 14.4711 15.3183 14.9984 13.9927 15Z" fill="white"/>
</g>
<defs>
<clipPath id="clip0_99_268">
<rect width="24" height="24" fill="white"/>
</clipPath>
</defs>
</svg>
