<svg xmlns="http://www.w3.org/2000/svg" width="30" height="30" viewBox="0 0 30 30">
  <g id="holiday_icon" transform="translate(-1246.254 -861.912)">
    <g id="Group_7353" data-name="Group 7353" transform="translate(1246.254 861.912)">
      <path id="Path_3510" data-name="Path 3510" d="M1251.293,881.317a.54.54,0,0,0,.98.206q.09-.107.187-.206Zm0,0a.54.54,0,0,0,.98.206q.09-.107.187-.206Zm24.96-14.94a2.492,2.492,0,0,0-2.491-2.5c-.2,0-.411-.013-.615,0-.263.02-.367-.074-.366-.348a1.594,1.594,0,0,0-.536-1.28,1.8,1.8,0,0,0-.638-.345h-.761a1.538,1.538,0,0,0-1.133,1.643c.012.236-.07.338-.317.33q-.658-.02-1.317,0c-.247.008-.329-.094-.318-.33a1.537,1.537,0,0,0-1.133-1.643h-.82a1.651,1.651,0,0,0-1.12,1.674c0,.207-.076.3-.292.3q-.657-.013-1.314,0c-.207,0-.307-.067-.3-.286a1.606,1.606,0,0,0-1.13-1.685h-.82a1.6,1.6,0,0,0-1.13,1.683c.007.217-.089.292-.3.288-.418-.008-.837-.014-1.255,0-.27.011-.351-.091-.359-.354a1.571,1.571,0,0,0-1.174-1.619h-.761a1.538,1.538,0,0,0-1.133,1.643c.012.236-.07.338-.317.33q-.658-.02-1.317,0c-.247.008-.328-.094-.317-.33a1.537,1.537,0,0,0-1.132-1.643h-.82a1.649,1.649,0,0,0-1.12,1.675c0,.237-.109.3-.324.3a5.177,5.177,0,0,0-1.05.027,2.564,2.564,0,0,0-2.073,1.982v20.024a2.546,2.546,0,0,0,2.143,1.981,6.081,6.081,0,0,0,1.021.028c.2,0,.244.058.146.238a7.133,7.133,0,0,0-.785,2.465,1.048,1.048,0,0,0,1.1,1.282h22.771a1.037,1.037,0,0,0,1.1-1.269,6.868,6.868,0,0,0-.76-2.442c-.129-.242-.045-.278.181-.274a4,4,0,0,0,1.333-.117,2.5,2.5,0,0,0,1.749-2.378q0-3.58,0-7.16Q1276.254,872.324,1276.252,866.377Zm-5.459-2.932c.011-.315.167-.471.439-.472a.44.44,0,0,1,.463.461q.019.98,0,1.959a.475.475,0,0,1-.465.472.456.456,0,0,1-.436-.491c-.012-.321,0-.643,0-.965S1270.782,863.767,1270.793,863.446Zm-5.017.032a.45.45,0,0,1,.452-.5c.283-.006.443.155.454.487s0,.643,0,.965.008.624,0,.936-.2.509-.453.5a.489.489,0,0,1-.453-.517Q1265.764,864.414,1265.776,863.478Zm-4.982-.029a.431.431,0,0,1,.441-.475.424.424,0,0,1,.454.461q.013.98,0,1.959a.454.454,0,0,1-.455.472.46.46,0,0,1-.44-.488c-.008-.321,0-.643,0-.965S1260.786,863.77,1260.795,863.449Zm-4.99,0c.005-.318.162-.476.432-.479a.449.449,0,0,1,.472.483c.012.321,0,.643,0,.965h0c0,.3.005.6,0,.907a.5.5,0,0,1-.463.538.458.458,0,0,1-.443-.513Q1255.79,864.4,1255.8,863.454Zm-5.017.026a.451.451,0,0,1,.451-.5c.283-.007.443.154.455.486.011.311,0,.624,0,.936s.008.644,0,.965-.195.51-.451.505a.49.49,0,0,1-.454-.515Q1250.776,864.415,1250.787,863.479Zm-3.467,2.77a1.379,1.379,0,0,1,1.326-1.279c.234-.011.469,0,.7-.009s.36.073.355.333a1.688,1.688,0,0,0,.158.767,1.531,1.531,0,0,0,1.725.843,1.515,1.515,0,0,0,1.188-1.474c.006-.467.006-.467.473-.468.371,0,.741.013,1.111,0,.286-.013.37.1.368.378a1.5,1.5,0,0,0,.981,1.51,1.548,1.548,0,0,0,2.086-1.458c.031-.424.031-.425.465-.426.342,0,.683,0,1.025,0,.4,0,.409.009.418.407a1.541,1.541,0,0,0,3.08.077c.021-.483.021-.483.518-.483.351,0,.7.007,1.054,0,.231-.005.34.076.337.321a1.74,1.74,0,0,0,.178.82,1.538,1.538,0,0,0,1.722.8,1.518,1.518,0,0,0,1.172-1.459c.008-.48.008-.48.49-.481h1.025c.425,0,.428.007.433.419a1.5,1.5,0,0,0,1.284,1.538,1.527,1.527,0,0,0,1.736-1.171c.014-.067.022-.135.032-.2.089-.584.089-.579.7-.586a1.671,1.671,0,0,1,1.162.3,1.322,1.322,0,0,1,.533.97c.02.438.011.878.023,1.316.007.242-.1.323-.338.321-.878-.008-1.756,0-2.634,0h-24.442c-.467,0-.473,0-.472-.476C1247.3,867.009,1247.293,866.628,1247.321,866.249Zm24.572,24.6h-21.422c-.107,0-.214,0-.322,0-.225.006-.307-.072-.266-.319a6.769,6.769,0,0,1,2.393-4.045,12.535,12.535,0,0,1,6.044-2.767c.229-.044.461-.075.691-.115a.36.36,0,0,1,.451.263c.114.3.247.594.383.885a.546.546,0,0,0,.736.338.552.552,0,0,0,.246-.768q-.113-.286-.244-.564c-.08-.173-.064-.281.155-.293.126-.007.252-.034.378-.034a15.8,15.8,0,0,1,5.968,1.115c.239.1.247.183.133.4a.728.728,0,0,1-.761.436c-1.277-.025-2.556,0-3.833-.013a1.1,1.1,0,0,0-1.008.53c-.243.377-.5.745-.742,1.122a.559.559,0,0,0,.114.824.544.544,0,0,0,.776-.224q.325-.469.632-.95a.448.448,0,0,1,.412-.223q1.961.006,3.921,0a.445.445,0,0,1,.408.228q.307.481.632.95a.54.54,0,0,0,.777.216.546.546,0,0,0,.122-.8c-.2-.321-.422-.633-.629-.952a.879.879,0,0,1,.306-.877.218.218,0,0,1,.193.044,7.94,7.94,0,0,1,4,4.749C1272.765,890.842,1272.756,890.844,1271.892,890.844Zm2.809-4.365a1.356,1.356,0,0,1-.9.359c-.488,0-.976,0-1.463,0a.469.469,0,0,1-.388-.162,10.761,10.761,0,0,0-2.841-2.323c-.172-.1-.18-.2-.079-.355a2.525,2.525,0,0,0,.2-.356.53.53,0,0,0-.211-.71.51.51,0,0,0-.7.167,3.093,3.093,0,0,0-.261.422c-.091.175-.2.2-.38.12a16.144,16.144,0,0,0-3.929-1.11,16.644,16.644,0,0,0-3.382-.146.463.463,0,0,1-.528-.332q-.155-.371-.313-.739c-.358-.839-.727-1.674-1.09-2.512-.13-.3-.115-.334.2-.422.16-.044.322-.082.485-.112a3.978,3.978,0,0,1,.784-.07.8.8,0,0,0,.662-.306,3.729,3.729,0,0,1,2.914-1.323c.068,0,.137,0,.2,0a.484.484,0,0,0,.507-.274.543.543,0,0,0-.068-.6,5.2,5.2,0,0,0-.988-.952,6.79,6.79,0,0,0-5.106-1.316,7.607,7.607,0,0,0-6.165,4.328c-.084.17-.161.341-.228.515a6.061,6.061,0,0,0-.369,2.924.976.976,0,0,0,.021.122.54.54,0,0,0,.98.206q.09-.107.187-.206a3.7,3.7,0,0,1,1.984-1.084,2.867,2.867,0,0,1,.756-.054,1,1,0,0,0,.857-.346,5.04,5.04,0,0,1,.963-.759c.2-.131.308-.128.411.117q.45,1.066.918,2.126.2.467.411.934c.089.2.074.282-.174.321a14.889,14.889,0,0,0-4.731,1.548,10.923,10.923,0,0,0-3.235,2.523.514.514,0,0,1-.429.2c-.5-.008-.995,0-1.492-.006a1.4,1.4,0,0,1-1.381-1.292c-.013-.155-.016-.311-.016-.468q0-3.4,0-6.806,0-4.4,0-8.8c0-.519,0-.52.517-.52h26.843c.525,0,.526,0,.526.512q0,4.4,0,8.805,0,3.428,0,6.856A1.627,1.627,0,0,1,1274.7,886.48Zm-18.672-11.2a.5.5,0,0,1,.53-.2,3.6,3.6,0,0,1,2.556,1.9c.1.157.024.207-.116.232a7.127,7.127,0,0,0-2.7,1.065c-.145.093-.286.193-.426.3s-.2.02-.234-.112c-.018-.063-.034-.124-.05-.187a3.881,3.881,0,0,1-.13-1.09A2.842,2.842,0,0,1,1256.03,875.275Zm2.211-.784a5.955,5.955,0,0,1,4.2,1.076c-.331.113-.6.2-.859.3a4.531,4.531,0,0,0-1.18.691c-.11.088-.2.153-.3-.023a5.554,5.554,0,0,0-1.758-1.922A.869.869,0,0,1,1258.24,874.491Zm-5.834,5.406c-.063-.027-.045-.1-.035-.156a6.366,6.366,0,0,1,.445-1.47,5.967,5.967,0,0,1,1.433-1.988c.042-.038.092-.1.149-.045s.024.129.027.176a5.319,5.319,0,0,0,.052,1.858,5.743,5.743,0,0,0,.161.615c.048.149.012.216-.143.24a4.984,4.984,0,0,0-1.957.734C1252.5,879.886,1252.44,879.912,1252.407,879.9Zm-1.114,1.42a.54.54,0,0,0,.98.206q.09-.107.187-.206Zm0,0a.54.54,0,0,0,.98.206q.09-.107.187-.206Z" transform="translate(-1246.254 -861.912)" fill="#114668"/>
      <path id="Path_3511" data-name="Path 3511" d="M1500.91,985.442a1.5,1.5,0,0,0-.4-.042c-.2.009-.285-.1-.364-.267s0-.271.111-.377a1.938,1.938,0,0,0,.235-.259.539.539,0,0,0-.055-.694.5.5,0,0,0-.69-.036,1.464,1.464,0,0,0-.237.215.39.39,0,0,1-.681-.274,1.587,1.587,0,0,0,0-.291.511.511,0,0,0-.462-.483.5.5,0,0,0-.563.4,2.248,2.248,0,0,0-.047.463c0,.184-.126.242-.264.3a.26.26,0,0,1-.339-.063,2.3,2.3,0,0,0-.231-.223.53.53,0,0,0-.754.744,1.56,1.56,0,0,0,.16.168.334.334,0,0,1,.127.429.376.376,0,0,1-.41.246,1.347,1.347,0,0,0-.374.045.51.51,0,0,0-.377.553.518.518,0,0,0,.477.47,1.577,1.577,0,0,0,.292,0,.336.336,0,0,1,.382.233.349.349,0,0,1-.106.461,1.516,1.516,0,0,0-.218.235.484.484,0,0,0-.035.573.506.506,0,0,0,.516.255.791.791,0,0,0,.484-.3c.109-.1.193-.237.394-.15a.387.387,0,0,1,.285.415,1.294,1.294,0,0,0,.041.376.527.527,0,0,0,.542.4.533.533,0,0,0,.479-.472,1.528,1.528,0,0,0,0-.32c-.024-.22.106-.3.281-.38s.286-.009.4.112c.153.161.3.341.529.324a.513.513,0,0,0,.554-.478.635.635,0,0,0-.212-.49c-.132-.144-.348-.229-.23-.526s.344-.257.571-.263c.039,0,.078,0,.117,0a.542.542,0,0,0,.487-.5A.525.525,0,0,0,1500.91,985.442Zm-2.62,1.456a.933.933,0,0,1-.928-.956.907.907,0,0,1,.94-.934.926.926,0,0,1,.949.932A.944.944,0,0,1,1498.29,986.9Z" transform="translate(-1475.771 -973.458)" fill="#114668"/>
    </g>
    <path id="Path_3512" data-name="Path 3512" d="M1314.564,1144.337H1293.12c-.107,0-.215,0-.322,0-.226.005-.308-.072-.266-.318a6.741,6.741,0,0,1,2.4-4.032,12.571,12.571,0,0,1,6.05-2.757c.229-.044.461-.075.691-.115a.361.361,0,0,1,.451.262c.114.3.247.593.384.883a.54.54,0,1,0,.983-.429q-.113-.285-.244-.562c-.081-.172-.064-.28.155-.292.126-.007.252-.034.378-.034a15.878,15.878,0,0,1,5.974,1.112c.239.1.247.182.133.4a.73.73,0,0,1-.762.434c-1.279-.025-2.558,0-3.838-.013a1.1,1.1,0,0,0-1.008.529c-.244.376-.5.743-.743,1.119a.555.555,0,0,0,.114.821.546.546,0,0,0,.777-.224q.325-.468.633-.947a.448.448,0,0,1,.413-.222q1.963.006,3.925,0a.445.445,0,0,1,.409.228q.308.479.633.947a.539.539,0,1,0,.9-.579c-.2-.32-.422-.631-.629-.949a.874.874,0,0,1,.306-.874.219.219,0,0,1,.193.044,7.923,7.923,0,0,1,4,4.733C1315.437,1144.335,1315.429,1144.337,1314.564,1144.337Z" transform="translate(-42.661 -253.49)" fill="#2e9495"/>
    <path id="Path_3513" data-name="Path 3513" d="M1326.465,1047.706a4.968,4.968,0,0,0-1.951.732c-.037.025-.1.051-.131.036-.062-.027-.044-.1-.035-.155a6.353,6.353,0,0,1,.444-1.465,5.947,5.947,0,0,1,1.428-1.982c.041-.038.091-.1.149-.045s.024.129.027.175a5.3,5.3,0,0,0,.052,1.852,5.691,5.691,0,0,0,.16.613C1326.656,1047.615,1326.62,1047.682,1326.465,1047.706Z" transform="translate(-71.975 -168.582)" fill="#2e9495"/>
    <path id="Path_3514" data-name="Path 3514" d="M1523.813,1010.494a.943.943,0,0,1-.96.958.933.933,0,0,1-.929-.956.907.907,0,0,1,.94-.934A.925.925,0,0,1,1523.813,1010.494Z" transform="translate(-254.102 -136.098)" fill="#2e9495"/>
    <path id="Path_3515" data-name="Path 3515" d="M1403.681,1023.323c-.33.113-.6.195-.856.3a4.518,4.518,0,0,0-1.177.689c-.109.088-.2.152-.3-.023a5.535,5.535,0,0,0-1.753-1.916.879.879,0,0,1-.105-.118A5.935,5.935,0,0,1,1403.681,1023.323Z" transform="translate(-141.247 -147.756)" fill="#2e9495"/>
    <path id="Path_3516" data-name="Path 3516" d="M1367.383,1032.159a7.1,7.1,0,0,0-2.694,1.062c-.144.093-.285.193-.425.3s-.2.02-.233-.112c-.018-.062-.034-.124-.05-.186a3.869,3.869,0,0,1-.13-1.086,2.833,2.833,0,0,1,.572-1.9.494.494,0,0,1,.528-.2,3.587,3.587,0,0,1,2.548,1.9C1367.6,1032.084,1367.522,1032.134,1367.383,1032.159Z" transform="translate(-108.391 -154.954)" fill="#2e9495"/>
  </g>
</svg>
