<svg xmlns="http://www.w3.org/2000/svg" viewBox="0 0 261.53 310.21"><g id="Layer_2" data-name="Layer 2"><g id="Layer_1-2" data-name="Layer 1"><path d="M181.2,46.2a10.82,10.82,0,0,1-10.45,7.69q-6,.06-12.05,0H133.22l-.47,4.48A277.14,277.14,0,0,1,93.12,175.84l-2.59,4.26,4.26,2.61,5.4,3.29c4,2.42,8.09,4.92,12.09,7.41,4.2,2.62,5.92,6,5.41,10.72s-3.08,7.81-7.82,9.31a10.65,10.65,0,0,1-3.2.52,10.51,10.51,0,0,1-5.36-1.56c-4.59-2.72-9.25-5.55-13.75-8.28l-5.81-3.52-3.58-2.16-2.76,3.13c-1.55,1.76-3.08,3.56-4.63,5.38-3.38,4-6.88,8.06-10.57,11.76-8,8-16.54,16.06-25.39,23.94A12.19,12.19,0,0,1,26.74,246a10.52,10.52,0,0,1-8.08-3.95A10.52,10.52,0,0,1,16,234.29a12.63,12.63,0,0,1,4.78-8.42,258.52,258.52,0,0,0,36.78-37.63c.51-.64,1-1.3,1.43-1.86l2.63-3.45-1.95-3c-1.52-2.32-3.06-4.61-4.59-6.88-3.43-5.1-6.67-9.92-9.66-15a118.45,118.45,0,0,1-12.7-31.19c-1.73-6.67,1.38-12.68,7.4-14.28a11.81,11.81,0,0,1,3-.41c5,0,9.2,3.47,10.67,8.84A116.72,116.72,0,0,0,69,154.82a16.2,16.2,0,0,0,1.14,1.49l.66.79,4.63,5.72L79,156.41A253.2,253.2,0,0,0,110.47,59.5l.65-5.58H50.37q-19.3,0-38.63,0A11.8,11.8,0,0,1,1.88,49,10.72,10.72,0,0,1,.71,39.1c2.2-6,7.65-7.23,11.83-7.24H80.08v-5c0-2,0-3.87,0-5.76-.06-4-.11-7.83.1-11.57C80.42,4.18,85.17,0,90.92,0H91a10.56,10.56,0,0,1,10.63,9.57c.19,2.85.17,5.71.15,8.75,0,1.36,0,2.72,0,4.08,0,.88,0,1.76,0,2.78v6.67h27.75l12.18,0h12.06c6.24,0,11.37,0,16.14.07a12,12,0,0,1,9.81,4.7A10.58,10.58,0,0,1,181.2,46.2Z"/><path d="M261.05,295.1q-5-22.28-9.88-44.55c-5.34-24.08-10.85-49-16.34-73.44-4.42-19.68-20.46-33-39.92-33h-.16c-19.74,0-35.43,12.81-40,32.64-4.39,19.21-8.72,38.77-12.91,57.7Q139,247.21,136.21,260q-1.29,5.76-2.59,11.53c-1.81,8.06-3.68,16.39-5.45,24.59-1.43,6.66,2,12.47,8.2,13.82a12.42,12.42,0,0,0,2.54.28c5.2,0,9.4-3.68,10.72-9.37.33-1.45.65-2.91,1-4.37.18-.84.36-1.69.55-2.53l10.65-48H192c9.81,0,19.55,0,29.33-.05,4.22,0,6.85,2.29,7.84,6.81q2.42,11.05,4.88,22.09c1.83,8.21,3.71,16.7,5.53,25.06,1.09,5,3.36,7.93,7.36,9.36a12.08,12.08,0,0,0,4,.76,10.07,10.07,0,0,0,6.75-2.72C261.22,304.22,262.25,300.47,261.05,295.1Zm-94.26-71.47,3-13.79c1.38-6.31,2.75-12.54,4.14-18.76l.57-2.62c.63-2.93,1.28-6,2.15-9a18.78,18.78,0,0,1,17.67-13.64h.44c8.35,0,15.84,5.62,17.79,13.37,2.25,8.94,4.3,18.12,6.28,27q1.24,5.61,2.53,11.29l1.39,6.11Z"/></g></g></svg>