<svg xmlns="http://www.w3.org/2000/svg" width="23.943" height="24" viewBox="0 0 23.943 24">
  <g id="logout_icon" transform="translate(-1758.367 -572.05)">
    <path id="Path_2909" data-name="Path 2909" d="M1779.925,613.81a9.575,9.575,0,0,0-3.321-7.262,1.245,1.245,0,0,1,.045-2.016,1.2,1.2,0,0,1,1.5.163,11.927,11.927,0,0,1,3.649,5.648,11.975,11.975,0,0,1-21.76,9.636,12.137,12.137,0,0,1,2.484-15.268,1.185,1.185,0,0,1,1.707.073,1.2,1.2,0,0,1-.125,1.73,9.619,9.619,0,1,0,15.679,8.962A13.6,13.6,0,0,0,1779.925,613.81Z" transform="translate(0 -29.868)" fill="#fff"/>
    <path id="Path_2910" data-name="Path 2910" d="M1902.031,578.062c0-1.6,0-3.2,0-4.807a1.191,1.191,0,0,1,2.379-.088c0,.065.006.131.006.2q0,4.723,0,9.446a1.192,1.192,0,0,1-1.192,1.307,1.167,1.167,0,0,1-1.188-1.135c-.018-.637-.007-1.274-.007-1.911q0-1.5,0-3.008Z" transform="translate(-132.884 0)" fill="#fff"/>
  </g>
</svg>
