<svg xmlns="http://www.w3.org/2000/svg" width="24" height="24" viewBox="0 0 24 24">
  <g id="mail_icon" transform="translate(-2128 493)">
    <g id="Group_7" data-name="Group 7" transform="translate(1296.893 -1249.092)">
      <path id="Path_34" data-name="Path 34" d="M847.879,763.785c0-.416,0-.827,0-1.237a.79.79,0,0,1,.658-.792.815.815,0,0,1,.929.538,1.156,1.156,0,0,1,.04.418q0,4.164,0,8.327a1.748,1.748,0,0,0,.668,1.484,1.667,1.667,0,0,0,2.557-.641,8.5,8.5,0,0,0,.621-2.321,9.858,9.858,0,0,0-.725-5.446,10.03,10.03,0,0,0-7.877-6.162,10.311,10.311,0,1,0,3.51,19.12,1.1,1.1,0,0,1,.743-.232.822.822,0,0,1,.278,1.54,10.536,10.536,0,0,1-2.606,1.168,11.752,11.752,0,0,1-11.473-2.471,11.464,11.464,0,0,1-4-7.533,11.99,11.99,0,0,1,23.761-3.219,11.816,11.816,0,0,1-.63,6.012,3.326,3.326,0,0,1-6.192.138c-.105-.252-.1-.246-.3-.048a6.2,6.2,0,0,1-6.545,1.821,6.091,6.091,0,0,1-4.513-5.063,6.4,6.4,0,0,1,10.867-5.549c.047.046.095.092.145.136C847.813,763.78,847.833,763.777,847.879,763.785Zm-4.752-.41a4.748,4.748,0,1,0-.006,9.5,4.748,4.748,0,0,0,.006-9.5Z" transform="translate(0)"/>
    </g>
    <rect id="Rectangle_22" data-name="Rectangle 22" width="24" height="24" transform="translate(2128 -493)" fill="none"/>
  </g>
</svg>
