<svg xmlns="http://www.w3.org/2000/svg" width="24" height="24" viewBox="0 0 24 24">
  <path id="phone-call" d="M13.021,1a1,1,0,0,1,1-1A10.027,10.027,0,0,1,24.039,10.016a1,1,0,1,1-2,0A8.022,8.022,0,0,0,14.023,2a1,1,0,0,1-1-1Zm1,5.008a4.007,4.007,0,0,1,4.007,4.007,1,1,0,1,0,2,0,6.016,6.016,0,0,0-6.01-6.01,1,1,0,0,0,0,2Zm9.108,10.757a3.105,3.105,0,0,1,0,4.385L22.219,22.2C14.016,30.056-5.947,10.1,1.786,1.869l1.152-1a3.086,3.086,0,0,1,4.334.04C7.3.939,9.159,3.35,9.159,3.35a3.105,3.105,0,0,1-.007,4.289L7.992,9.1a12.8,12.8,0,0,0,6.942,6.956L16.4,14.886a3.105,3.105,0,0,1,4.288-.006S23.1,16.735,23.131,16.767Zm-1.378,1.456s-2.4-1.844-2.428-1.875a1.1,1.1,0,0,0-1.552,0c-.027.028-2.047,1.638-2.047,1.638a1,1,0,0,1-.981.152A15.034,15.034,0,0,1,5.91,9.315a1,1,0,0,1,.145-1s1.61-2.021,1.637-2.047a1.1,1.1,0,0,0,0-1.552c-.031-.03-1.875-2.429-1.875-2.429A1.1,1.1,0,0,0,4.3,2.325l-1.152,1c-5.651,6.8,11.648,23.135,17.6,17.508l.912-1.052a1.123,1.123,0,0,0,.085-1.56Z" transform="translate(-0.039 0.002)" fill="#fff"/>
</svg>
