<svg xmlns="http://www.w3.org/2000/svg" width="18" height="24" viewBox="0 0 18 24">
  <g id="profile_active" transform="translate(-127.58 -35.05)">
    <path id="Path_3286" data-name="Path 3286" d="M136.58,35.05a6,6,0,1,0,6,6A6,6,0,0,0,136.58,35.05Zm0,10a4,4,0,1,1,4-4A4,4,0,0,1,136.58,45.05Z" fill="#212121"/>
    <circle id="Ellipse_133" data-name="Ellipse 133" cx="4" cy="4" r="4" transform="translate(132.58 37.05)" fill="#57cc99"/>
    <path id="Path_3287" data-name="Path 3287" d="M145.58,58.05a1,1,0,0,1-2,0,7,7,0,0,0-14,0,1,1,0,0,1-2,0,9,9,0,0,1,18,0Z" fill="#212121"/>
    <path id="Path_3288" data-name="Path 3288" d="M144.58,59.05h-16a1,1,0,0,0,1-1,7,7,0,0,1,14,0A1,1,0,0,0,144.58,59.05Z" fill="#57cc99"/>
    <line id="Line_23" data-name="Line 23" x1="0.71" transform="translate(127.87 59.05)" fill="none"/>
  </g>
</svg>
