<svg xmlns="http://www.w3.org/2000/svg" width="18" height="24" viewBox="0 0 18 24">
  <g id="profile" transform="translate(-197.583 -235.186)">
    <path id="Path_3284" data-name="Path 3284" d="M136.583,16.186a6,6,0,1,0-6-6A6,6,0,0,0,136.583,16.186Zm0-10a4,4,0,1,1-4,4A4,4,0,0,1,136.583,6.186Z" transform="translate(70 231)" fill="#212121"/>
    <path id="Path_3285" data-name="Path 3285" d="M136.583,18.186a9.01,9.01,0,0,0-9,9,1,1,0,1,0,2,0,7,7,0,0,1,14,0,1,1,0,0,0,2,0A9.011,9.011,0,0,0,136.583,18.186Z" transform="translate(70 231)" fill="#212121"/>
  </g>
</svg>
