<svg xmlns="http://www.w3.org/2000/svg" width="24" height="24" viewBox="0 0 24 24">
  <g id="qualification" transform="translate(-6917 -3967)">
    <rect id="Rectangle_17568" data-name="Rectangle 17568" width="24" height="24" transform="translate(6917 3967)" fill="none"/>
    <path id="graduation-cap_2_" data-name="graduation-cap(2)" d="M22.046,25.107l-7.374-3.513a5.226,5.226,0,0,0-5.283-.045L1.932,25.107c-.028.014-.057.029-.084.045a3.691,3.691,0,0,0,.084,6.455l2.057.98v4.9a5.007,5.007,0,0,0,3.519,4.778,15.556,15.556,0,0,0,4.481.612,15.557,15.557,0,0,0,4.481-.607,5.007,5.007,0,0,0,3.519-4.778V32.584l2-.956v8.248a1,1,0,0,0,2,0v-12A3.348,3.348,0,0,0,22.046,25.107ZM17.989,37.491a3,3,0,0,1-2.1,2.863,13.592,13.592,0,0,1-3.9.522,13.592,13.592,0,0,1-3.9-.522,3,3,0,0,1-2.1-2.863V33.539l3.317,1.58a5.272,5.272,0,0,0,2.7.739,5,5,0,0,0,2.577-.694l3.4-1.625Zm3.2-7.69-7.542,3.6a3.294,3.294,0,0,1-3.39-.045l-7.379-3.51a1.692,1.692,0,0,1-.037-2.958l7.495-3.58a3.3,3.3,0,0,1,3.39.045L21.1,26.867a1.728,1.728,0,0,1,.889,1.49,1.7,1.7,0,0,1-.8,1.445Z" transform="translate(6917.011 3947.134)" fill="#fff"/>
  </g>
</svg>
