<svg xmlns="http://www.w3.org/2000/svg" width="18" height="24" viewBox="0 0 18 24">
  <g id="result_icon" transform="translate(-10802 -3019)">
    <path id="test_1_" data-name="test(1)" d="M16,17a1,1,0,0,1,0,2H15a1,1,0,0,1,0-2Zm-2-2a1,1,0,0,1-1-1V13H11v1a1,1,0,0,1-2,0V10a3,3,0,0,1,6,0v4A1,1,0,0,1,14,15Zm-1-4V10a1,1,0,0,0-2,0v1Zm-1.711,5.3L9.677,17.93a.25.25,0,0,1-.344.01l-.616-.64a1,1,0,0,0-1.434,1.4l.626.644a2.255,2.255,0,0,0,3.186,0L12.711,17.7a1,1,0,0,0-1.422-1.4ZM21,6.657V19a5.006,5.006,0,0,1-5,5H8a5.006,5.006,0,0,1-5-5V5A5.006,5.006,0,0,1,8,0h6.343a4.969,4.969,0,0,1,3.536,1.465l1.656,1.656A4.969,4.969,0,0,1,21,6.657ZM16.465,2.879A3.042,3.042,0,0,0,16,2.5V5h2.5a3.042,3.042,0,0,0-.38-.465ZM19,7H16a2,2,0,0,1-2-2V2H8A3,3,0,0,0,5,5V19a3,3,0,0,0,3,3h8a3,3,0,0,0,3-3Z" transform="translate(10799 3019)" fill="#fff"/>
  </g>
</svg>
