<svg id="back_icon" xmlns="http://www.w3.org/2000/svg" width="24.018" height="24" viewBox="0 0 24.018 24">
  <g id="Group_5" data-name="Group 5" transform="translate(0 0.006)">
    <path id="Path_23" data-name="Path 23" d="M821.766,850.326a.807.807,0,0,0,.522-.214.862.862,0,0,0,.284-.756v-3.128c0-2.086.011-4.243-.015-6.361a4.847,4.847,0,0,1,4.839-4.915h.056c1.536.017,3.2.026,5.251.026q1.762,0,3.525-.005t3.528-.006h.436c.043,0,.086-.006.129-.006a.9.9,0,0,1,.548.174h0a.614.614,0,0,1,.242.58h0a.98.98,0,0,1-.374.618c-.012.01-.023.019-.033.029l-2.1,2.106-1.83,1.833-.019.019a2.406,2.406,0,0,0-.294.329.744.744,0,0,0-.063.838.844.844,0,0,0,.74.442h0a.954.954,0,0,0,.7-.357q2.352-2.353,4.707-4.7l2.1-2.1a.9.9,0,0,0,.288-.635.888.888,0,0,0-.284-.631q-3.4-3.391-6.79-6.779a2.189,2.189,0,0,0-.266-.24.807.807,0,0,0-1.162.228c-.087.138-.354.555.222,1.135q1.184,1.19,2.371,2.375L840.7,831.9a.346.346,0,0,0,.029.027,1.119,1.119,0,0,1,.387.636h0a.612.612,0,0,1-.6.735h-13a7.034,7.034,0,0,0-1.818.227,6.264,6.264,0,0,0-4.74,5.767c-.062,2.489-.047,5.027-.032,7.481.006.912.011,1.856.013,2.784a.7.7,0,0,0,.479.691.871.871,0,0,0,.346.074Z" transform="translate(-820.915 -826.332)" fill="#212121"/>
  </g>
  <rect id="Rectangle_19" data-name="Rectangle 19" width="24" height="24" transform="translate(0.016)" fill="none"/>
</svg>
