<svg xmlns="http://www.w3.org/2000/svg" width="24" height="23.997" viewBox="0 0 24 23.997">
  <g id="schedule" transform="translate(-38.68 -78.057)">
    <path id="Path_3375" data-name="Path 3375" d="M58.3,102.054H43.035c-.045-.011-.09-.025-.135-.033a5.011,5.011,0,0,1-3.2-1.9A5.2,5.2,0,0,1,38.68,97.7V84.444c.011-.053.023-.106.032-.16a5.025,5.025,0,0,1,3.934-4.129,7.163,7.163,0,0,1,1.723-.117c.207,0,.3-.059.29-.28s-.005-.453,0-.679a1,1,0,0,1,.973-1.022,1.016,1.016,0,0,1,1.069.98,6.576,6.576,0,0,1,0,.7c-.014.225.072.3.3.3.952-.009,1.905,0,2.857,0,1.491,0,2.982,0,4.473,0,.2,0,.329-.036.313-.281a6.28,6.28,0,0,1,0-.726,1.015,1.015,0,0,1,1.075-.973,1,1,0,0,1,.966,1c0,.234.011.469,0,.7-.01.206.073.279.274.273a8.979,8.979,0,0,1,1.332.045,5.012,5.012,0,0,1,4.391,4.955q.006,6.018,0,12.036a4.879,4.879,0,0,1-2.052,4.038A5.185,5.185,0,0,1,58.3,102.054ZM50.661,88.1h-9.6c-.35,0-.352,0-.352.354q0,4.262,0,8.523a2.957,2.957,0,0,0,3.049,3.044H57.574a2.96,2.96,0,0,0,3.056-3.061q0-4.237,0-8.476c0-.384,0-.385-.392-.385Zm-.017-2.073h9.5c.086,0,.172,0,.258,0,.156.006.228-.062.225-.223-.005-.249,0-.5,0-.749A2.936,2.936,0,0,0,57.7,82.113q-7.033-.015-14.068,0a2.917,2.917,0,0,0-2.892,2.5,6.928,6.928,0,0,0-.034,1.028c-.006.389,0,.39.384.39Z" fill="#212121"/>
    <path id="Path_3376" data-name="Path 3376" d="M55.668,91.545a1.517,1.517,0,1,1-1.534,1.525A1.514,1.514,0,0,1,55.668,91.545Z" fill="#212121"/>
    <path id="Path_3377" data-name="Path 3377" d="M45.661,94.578A1.517,1.517,0,1,1,47.2,93.062,1.517,1.517,0,0,1,45.661,94.578Z" fill="#212121"/>
    <path id="Path_3378" data-name="Path 3378" d="M50.656,94.578a1.517,1.517,0,1,1,1.529-1.5A1.5,1.5,0,0,1,50.656,94.578Z" fill="#212121"/>
  </g>
</svg>
