<svg xmlns="http://www.w3.org/2000/svg" width="24" height="24" viewBox="0 0 24 24">
  <g id="schedule_active" transform="translate(-38.68 -109.93)">
    <g id="Group_7268" data-name="Group 7268">
      <path id="Path_3379" data-name="Path 3379" d="M58.29,111.96a10.008,10.008,0,0,0-1.34-.05c-.2.01-.28-.06-.27-.27.01-.23,0-.47,0-.7a1,1,0,0,0-.96-1.01,1.024,1.024,0,0,0-1.08.98,5.766,5.766,0,0,0,0,.72c.02.25-.11.29-.31.28H49.85c-.95,0-1.9,0-2.85.01-.23,0-.31-.08-.3-.3.01-.24.01-.47,0-.71a1.022,1.022,0,0,0-1.07-.98,1,1,0,0,0-.97,1.03c-.01.22-.01.45,0,.67s-.08.29-.29.29a6.587,6.587,0,0,0-1.72.11,5.039,5.039,0,0,0-3.94,4.13c-.01.05-.02.11-.03.16v13.26A5.219,5.219,0,0,0,39.7,132a5.012,5.012,0,0,0,3.2,1.9l.14.03H58.3a5.144,5.144,0,0,0,2.32-.94,4.886,4.886,0,0,0,2.05-4.04q.015-6.015.01-12.04A5.023,5.023,0,0,0,58.29,111.96Zm2.34,16.88a2.963,2.963,0,0,1-3.06,3.06H43.76a2.956,2.956,0,0,1-3.05-3.04v-8.53c0-.35,0-.35.35-.35H60.24c.39,0,.39,0,.39.38Zm0-11.16c0,.16-.07.23-.22.23a2.253,2.253,0,0,0-.26,0H41.09c-.38,0-.39,0-.38-.39a8.8,8.8,0,0,1,.03-1.03,2.927,2.927,0,0,1,2.9-2.5q7.035-.015,14.06,0a2.936,2.936,0,0,1,2.93,2.94Z" fill="#212121"/>
      <path id="Path_3380" data-name="Path 3380" d="M60.63,120.36v8.48a2.963,2.963,0,0,1-3.06,3.06H43.76a2.956,2.956,0,0,1-3.05-3.04v-8.53c0-.35,0-.35.35-.35H60.24C60.63,119.98,60.63,119.98,60.63,120.36Z" fill="#57cc99"/>
      <path id="Path_3381" data-name="Path 3381" d="M60.651,116.93v.75c0,.16-.07.23-.22.23a2.253,2.253,0,0,0-.26,0H41.111c-.38,0-.39,0-.38-.39a8.8,8.8,0,0,1,.03-1.03,2.927,2.927,0,0,1,2.9-2.5q7.035-.015,14.06,0A2.936,2.936,0,0,1,60.651,116.93Z" fill="#57cc99"/>
      <path id="Path_3382" data-name="Path 3382" d="M55.668,123.422a1.517,1.517,0,1,1-1.534,1.525A1.514,1.514,0,0,1,55.668,123.422Z" fill="#212121"/>
      <path id="Path_3383" data-name="Path 3383" d="M45.661,126.455a1.517,1.517,0,1,1,1.543-1.516A1.516,1.516,0,0,1,45.661,126.455Z" fill="#212121"/>
      <path id="Path_3384" data-name="Path 3384" d="M50.656,126.455a1.517,1.517,0,1,1,1.529-1.5A1.5,1.5,0,0,1,50.656,126.455Z" fill="#212121"/>
    </g>
  </g>
</svg>
