<svg xmlns="http://www.w3.org/2000/svg" width="21.595" height="24" viewBox="0 0 21.595 24">
  <g id="setting" transform="translate(-68.895 -78.828)">
    <path id="Path_3386" data-name="Path 3386" d="M79.692,86.828a4,4,0,1,0,4,4A4,4,0,0,0,79.692,86.828Zm0,6a2,2,0,1,1,2-2A2,2,0,0,1,79.692,92.828Z" fill="#212121"/>
    <path id="Path_3387" data-name="Path 3387" d="M88.986,92.728l-.444-.256a9.1,9.1,0,0,0,0-3.29l.444-.256a3,3,0,0,0-3-5.2l-.445.257a8.995,8.995,0,0,0-2.849-1.642v-.513a3,3,0,0,0-6,0v.513a8.99,8.99,0,0,0-2.848,1.646l-.447-.259a3,3,0,1,0-3,5.2h0l.444.256a9.1,9.1,0,0,0,0,3.29l-.444.256a3,3,0,1,0,3,5.2h0l.445-.257a8.962,8.962,0,0,0,2.85,1.642v.513a3,3,0,0,0,6,0v-.513a8.963,8.963,0,0,0,2.848-1.646l.447.258a3,3,0,0,0,3-5.2h0Zm-2.548-3.776a7.041,7.041,0,0,1,0,3.75,1,1,0,0,0,.464,1.133l1.084.626a1,1,0,0,1-1,1.733h0L85.9,95.566a1,1,0,0,0-1.215.165,6.983,6.983,0,0,1-3.243,1.875,1,1,0,0,0-.751.969v1.253a1,1,0,0,1-2,0V98.576a1,1,0,0,0-.751-.969A6.978,6.978,0,0,1,74.7,95.728a1,1,0,0,0-1.215-.165L72.4,96.19a1,1,0,1,1-1.012-1.725l.012-.007,1.084-.626a1,1,0,0,0,.464-1.133,7.041,7.041,0,0,1,0-3.75,1,1,0,0,0-.465-1.129L71.4,87.194a1,1,0,1,1,1-1.733l1.086.628a1,1,0,0,0,1.214-.161,6.987,6.987,0,0,1,3.243-1.875,1,1,0,0,0,.751-.973V81.828a1,1,0,0,1,2,0V83.08a1,1,0,0,0,.751.969,6.994,6.994,0,0,1,3.243,1.879,1,1,0,0,0,1.215.165l1.084-.627A1,1,0,0,1,88,87.192l-.011.006-1.084.626a1,1,0,0,0-.463,1.129Z" fill="#212121"/>
  </g>
</svg>
