<svg xmlns="http://www.w3.org/2000/svg" width="21.595" height="24" viewBox="0 0 21.595 24">
  <g id="setting_active" transform="translate(-68.896 -109.93)">
    <path id="Path_3385" data-name="Path 3385" d="M79.69,117.93a4,4,0,1,0,4,4A4,4,0,0,0,79.69,117.93Zm0,6a2,2,0,1,1,2-2A2.006,2.006,0,0,1,79.69,123.93Z" fill="#00d052"/>
    <path id="Path_3388" data-name="Path 3388" d="M79.69,117.93a4,4,0,1,0,4,4A4,4,0,0,0,79.69,117.93Zm0,6a2,2,0,1,1,2-2A2.006,2.006,0,0,1,79.69,123.93Z" fill="#212121"/>
    <path id="Path_3389" data-name="Path 3389" d="M88.99,123.83l-.45-.26a9.1,9.1,0,0,0,0-3.29l.45-.25a3,3,0,1,0-3-5.2l-.45.25a9.211,9.211,0,0,0-2.85-1.64v-.51a3,3,0,1,0-6,0v.51a9.044,9.044,0,0,0-2.85,1.65l-.44-.26a3,3,0,1,0-3,5.2l.44.26a9.1,9.1,0,0,0,0,3.29l-.44.25a3,3,0,0,0,3,5.2l.44-.26a9.043,9.043,0,0,0,2.85,1.65v.51a3,3,0,0,0,6,0v-.51a9.043,9.043,0,0,0,2.85-1.65l.45.26a3,3,0,0,0,3-5.2Zm-2.55-3.78a7.021,7.021,0,0,1,0,3.75,1.017,1.017,0,0,0,.46,1.14l1.09.62a1,1,0,0,1-1,1.74l-1.09-.63a1.012,1.012,0,0,0-1.22.16,7,7,0,0,1-3.24,1.88,1,1,0,0,0-.75.97v1.25a1,1,0,0,1-2,0v-1.25a1,1,0,0,0-.75-.97,7,7,0,0,1-3.24-1.88,1.014,1.014,0,0,0-1.22-.17l-1.08.63a1,1,0,1,1-1.01-1.72.01.01,0,0,1,.01-.01l1.08-.63a.99.99,0,0,0,.47-1.13,7.021,7.021,0,0,1,0-3.75,1,1,0,0,0-.47-1.13l-1.08-.62a1,1,0,0,1,1-1.74l1.08.63a1.012,1.012,0,0,0,1.22-.16,7,7,0,0,1,3.24-1.88,1,1,0,0,0,.75-.97v-1.25a1,1,0,1,1,2,0v1.25a1,1,0,0,0,.75.97,7.028,7.028,0,0,1,3.25,1.88.986.986,0,0,0,1.21.16l1.08-.62A1,1,0,0,1,88,118.29c-.01.01-.01.01-.02.01l-1.08.63A.989.989,0,0,0,86.44,120.05Z" fill="#212121"/>
    <path id="Path_3390" data-name="Path 3390" d="M87.99,125.56l-1.09-.62a1.017,1.017,0,0,1-.46-1.14,7.021,7.021,0,0,0,0-3.75.989.989,0,0,1,.46-1.12l1.08-.63c.01,0,.01,0,.02-.01a1,1,0,0,0-1.02-1.72l-1.08.62a.986.986,0,0,1-1.21-.16,7.028,7.028,0,0,0-3.25-1.88,1,1,0,0,1-.75-.97v-1.25a1,1,0,1,0-2,0v1.25a1,1,0,0,1-.75.97,7,7,0,0,0-3.24,1.88,1.012,1.012,0,0,1-1.22.16l-1.08-.63a1,1,0,0,0-1,1.74l1.08.62a1,1,0,0,1,.47,1.13,7.021,7.021,0,0,0,0,3.75.99.99,0,0,1-.47,1.13l-1.08.63a.01.01,0,0,0-.01.01,1,1,0,1,0,1.01,1.72l1.08-.63a1.014,1.014,0,0,1,1.22.17,7,7,0,0,0,3.24,1.88,1,1,0,0,1,.75.97v1.25a1,1,0,0,0,2,0v-1.25a1,1,0,0,1,.75-.97,7,7,0,0,0,3.24-1.88,1.012,1.012,0,0,1,1.22-.16l1.09.63a1,1,0,0,0,1-1.74Zm-8.3.37a4,4,0,1,1,4-4A4,4,0,0,1,79.69,125.93Z" fill="#57cc99"/>
    <circle id="Ellipse_137" data-name="Ellipse 137" cx="2" cy="2" r="2" transform="translate(77.69 119.93)" fill="#57cc99"/>
  </g>
</svg>
