<svg xmlns="http://www.w3.org/2000/svg" width="24" height="25.463" viewBox="0 0 24 25.463">
  <g id="share_button" transform="translate(-0.394 0.339)">
    <g id="Icon_feather-share-2" data-name="Icon feather-share-2" transform="translate(1.834 0.661)">
      <path id="Path_3264" data-name="Path 3264" d="M29.539,6.519A3.519,3.519,0,1,1,26.019,3,3.519,3.519,0,0,1,29.539,6.519Z" transform="translate(-8.422 -3)" fill="none" stroke="#fff" stroke-linecap="round" stroke-linejoin="round" stroke-width="2"/>
      <path id="Path_3265" data-name="Path 3265" d="M11.539,17.019A3.519,3.519,0,1,1,8.019,13.5,3.519,3.519,0,0,1,11.539,17.019Z" transform="translate(-4.5 -5.288)" fill="none" stroke="#fff" stroke-linecap="round" stroke-linejoin="round" stroke-width="2"/>
      <path id="Path_3266" data-name="Path 3266" d="M29.539,27.519A3.519,3.519,0,1,1,26.019,24,3.519,3.519,0,0,1,29.539,27.519Z" transform="translate(-8.422 -7.576)" fill="none" stroke="#fff" stroke-linecap="round" stroke-linejoin="round" stroke-width="2"/>
      <path id="Path_3267" data-name="Path 3267" d="M12.885,20.265,20.9,24.934" transform="translate(-6.327 -6.762)" fill="none" stroke="#fff" stroke-linecap="round" stroke-linejoin="round" stroke-width="2"/>
      <path id="Path_3268" data-name="Path 3268" d="M20.886,9.765l-8,4.669" transform="translate(-6.327 -4.474)" fill="none" stroke="#fff" stroke-linecap="round" stroke-linejoin="round" stroke-width="2"/>
    </g>
    <rect id="Rectangle_17439" data-name="Rectangle 17439" width="24" height="24" transform="translate(0.394 0.394)" fill="none"/>
  </g>
</svg>
