<svg xmlns="http://www.w3.org/2000/svg" width="20" height="24.003" viewBox="0 0 20 24.003">
  <g id="show_password" transform="translate(-2 0.003)">
    <path id="Path_8568" data-name="Path 8568" d="M17,8H7V7a5,5,0,0,1,9.375-2.422,1,1,0,0,0,1.749-.971A7,7,0,0,0,5,7V8.424A5,5,0,0,0,2,13v6a5.006,5.006,0,0,0,5,5H17a5.006,5.006,0,0,0,5-5V13A5.006,5.006,0,0,0,17,8Zm3,11a3,3,0,0,1-3,3H7a3,3,0,0,1-3-3V13a3,3,0,0,1,3-3H17a3,3,0,0,1,3,3Z"/>
    <path id="Path_8569" data-name="Path 8569" d="M12,14a1,1,0,0,0-1,1v2a1,1,0,0,0,2,0V15A1,1,0,0,0,12,14Z"/>
  </g>
</svg>
