<svg xmlns="http://www.w3.org/2000/svg" width="30.235" height="28" viewBox="0 0 30.235 28">
  <g id="study_material_icon" transform="translate(-1114.94 -611.59)">
    <path id="Path_3362" data-name="Path 3362" d="M1270.254,639.59l-6.021,0a2.667,2.667,0,0,1-2.282-1.207.832.832,0,0,1-.191-.617.6.6,0,0,1,.565-.466.752.752,0,0,1,.6.384,1.726,1.726,0,0,0,1.5.736c.264.005.517.007.823.007l.916,0,.634,0h.022a.254.254,0,0,0,.192-.053c.039-.04.054-.105.051-.224-.017-.716-.014-1.445-.012-2.15v-.26c0-.481.194-.669.688-.669l1.118,0,1.754,0c1.075,0,1.937,0,2.715.009h.016a.345.345,0,0,0,.423-.427c-.011-.8-.01-1.619-.009-2.406v-.036c0-.5,0-1,0-1.5a.591.591,0,0,1,.386-.635.622.622,0,0,1,.214-.039.563.563,0,0,1,.564.584c.011,1.8.011,3.252,0,4.575a1.057,1.057,0,0,1-1.094,1.044c-.543.005-1.03.007-1.531.007-.551,0-1.032,0-1.471-.009h-.024a.363.363,0,0,0-.275.082.4.4,0,0,0-.074.3c.019.521.012,1.051,0,1.5a.317.317,0,0,0,.064.241.334.334,0,0,0,.233.07h.646l1.039,0h.051l.988,0c.753,0,1.336,0,1.891-.015a1.644,1.644,0,0,0,1.744-1.773l0-.512c.019-1.963.038-3.993-.009-6.018a4.933,4.933,0,0,0-4.1-4.949,3.764,3.764,0,0,0-.727-.083h-.057c-.516,0-1.053-.01-1.485-.019s-.972-.019-1.483-.019a21.273,21.273,0,0,0-2.554.13c-.044,0-.083.007-.118.007a.593.593,0,0,1-.632-.461.6.6,0,0,1,.521-.734c.132-.028.267-.05.418-.072l.049-.008.189-.031h0a10.341,10.341,0,0,1-2.822-5.81,5.578,5.578,0,0,1,4.6-6.394,6.2,6.2,0,0,1,.981-.079,5.547,5.547,0,0,1,5.574,4.907,7.6,7.6,0,0,1-.6,3.824,9.8,9.8,0,0,1-2.245,3.541h0c.131.028.261.052.39.077l.038.007a8.1,8.1,0,0,1,.978.226,6.226,6.226,0,0,1,4.265,5.859c-.019,1.483-.014,2.986-.009,4.439v.071q0,1.114,0,2.229a2.751,2.751,0,0,1-2.8,2.818Zm-1.746-3.359a.29.29,0,0,0-.227.071.35.35,0,0,0-.066.264c.008.221.007.45,0,.647,0,.157,0,.313,0,.469.008.509.237.747.72.747.032,0,.066,0,.1,0,.13-.008.254-.044.25-.249,0-.155,0-.314,0-.469v-.369h0v-.193c0-.063,0-.127,0-.19,0-.125,0-.227,0-.312,0-.214,0-.3-.049-.35s-.15-.059-.438-.061c-.078,0-.168,0-.273,0Zm1.31-23.465a4.629,4.629,0,0,0-2.079.565,4.417,4.417,0,0,0-2.235,4.657,8.667,8.667,0,0,0,2.353,4.886,2.837,2.837,0,0,0,2.007,1,2.888,2.888,0,0,0,2.018-.989,8.479,8.479,0,0,0,2.022-3.462,5.979,5.979,0,0,0,.311-3.051,4.462,4.462,0,0,0-4.3-3.6l-.08,0Z" transform="translate(-133.11 0)" fill="#114668"/>
    <path id="Path_3363" data-name="Path 3363" d="M1130.86,727.621a.254.254,0,0,1-.224-.288c0-.417,0-.842,0-1.256,0-.53-.185-.708-.719-.708h-.246l-.953,0-.956,0c-.525,0-.961,0-1.377-.008h-.066a4.815,4.815,0,0,0-2.64.775.624.624,0,0,1-.333.116.613.613,0,0,1-.329-.116,4.387,4.387,0,0,0-2.327-.762c-.515-.01-1.07-.015-1.745-.015q-.679,0-1.358,0l-.876,0c-.453,0-.648.2-.652.669,0,.4,0,.832,0,1.292a.252.252,0,0,1-.218.29,1.107,1.107,0,0,0-.9,1.232v6.839q0,1.242,0,2.483a1.106,1.106,0,0,0,1.214,1.211l.74,0q.6,0,1.208,0c.457,0,.87,0,1.3-.007h.083a4.317,4.317,0,0,1,2.877.974,4.574,4.574,0,0,1,.444.421.619.619,0,0,0,1.068,0,4.609,4.609,0,0,1,.453-.426,4.362,4.362,0,0,1,2.893-.975h.1c.443.007.855.009,1.3.009.385,0,.769,0,1.155,0l.729,0h.033a1.105,1.105,0,0,0,1.218-1.207q0-4.46,0-8.92v-.437A1.1,1.1,0,0,0,1130.86,727.621Zm-8.134,11.412a.062.062,0,0,1-.048.018.446.446,0,0,1-.2-.085,4.909,4.909,0,0,0-2.637-.75h-.117c-.336.008-.677.01-1.072.01l-.7,0h-.035l-.67,0c-.255,0-.51,0-.765,0h-.023a.377.377,0,0,1-.279-.08.4.4,0,0,1-.079-.295c.009-1.082.008-2.19.006-3.232v-2.25c0-1.04,0-2.145-.007-3.212a.432.432,0,0,1,.082-.317.364.364,0,0,1,.271-.078h.045c.24.007.488.011.78.011q.351,0,.7,0l.177,0,.523,0c.427,0,.988.007,1.552.059a3.9,3.9,0,0,1,2.4,1.16.47.47,0,0,1,.136.379V731.4c0,2.428,0,4.938,0,7.408A.368.368,0,0,1,1122.726,739.033Zm.834-10.2a.336.336,0,0,1-.211.106.346.346,0,0,1-.219-.112,4.813,4.813,0,0,0-3.22-1.223h-.039l-.518,0-.983,0c-.314,0-.569,0-.811,0h-.015a.342.342,0,0,1-.255-.076.374.374,0,0,1-.07-.261c0-.1,0-.194,0-.271,0-.451.015-.469.3-.469h.408c.119,0,.238,0,.362,0h.319l.389,0h.008c.167.009.35.01.524.01h.242c.243,0,.525,0,.806.023a4.045,4.045,0,0,1,2.154.822,1.029,1.029,0,0,0,.618.245.985.985,0,0,0,.61-.246,4.366,4.366,0,0,1,2.793-.856h.093c.438,0,.8.007,1.134.007.407,0,.778,0,1.137-.011h.022a.375.375,0,0,1,.259.076.389.389,0,0,1,.072.29c0,.07,0,.133,0,.189v.067c0,.448-.007.453-.366.453h-.1l-.236,0c-.106,0-.215,0-.323,0-.2,0-.4,0-.628-.009l-.09,0c-.178,0-.36-.006-.538-.006a7.557,7.557,0,0,0-1.172.076A4.771,4.771,0,0,0,1123.56,728.828Zm6.953,9.318a.387.387,0,0,1-.286.082h-.024c-.274,0-.56-.006-.9-.006l-.674,0h-.673c-.453,0-.762,0-1.041-.008h-.089a4.889,4.889,0,0,0-2.592.737.535.535,0,0,1-.217.1.068.068,0,0,1-.048-.018.39.39,0,0,1-.045-.23c.008-2.932.005-5.9,0-8.414a.633.633,0,0,1,.222-.484,4.119,4.119,0,0,1,2.883-1.133c.287,0,.593-.006.959-.006h1.251c.386,0,.706,0,1-.006h.021a.37.37,0,0,1,.252.075.4.4,0,0,1,.075.3c-.006,1.092,0,2.219,0,3.214V733.5c0,.385,0,.768,0,1.155v.229c0,.966,0,1.965.007,2.947A.425.425,0,0,1,1130.514,738.146Z" transform="translate(0 -103.151)" fill="#114668"/>
    <path id="Path_3364" data-name="Path 3364" d="M1151.613,738.216c0,.07,0,.133,0,.189v.067c0,.448-.007.453-.366.453h-.1l-.236,0c-.106,0-.215,0-.323,0-.2,0-.4,0-.628-.009l-.09,0c-.178,0-.36-.007-.538-.007a7.55,7.55,0,0,0-1.171.076,4.771,4.771,0,0,0-2.459,1.163.336.336,0,0,1-.211.106.346.346,0,0,1-.219-.112,4.813,4.813,0,0,0-3.22-1.223h-.039l-.518,0-.983,0c-.314,0-.569,0-.811,0h-.015a.342.342,0,0,1-.255-.076.375.375,0,0,1-.07-.261c0-.1,0-.194,0-.271,0-.451.015-.469.3-.469h.408c.119,0,.238,0,.362,0h.319l.389,0h.008c.167.009.35.01.524.01h.242c.243,0,.525,0,.806.023a4.047,4.047,0,0,1,2.154.822,1.029,1.029,0,0,0,.618.245.985.985,0,0,0,.61-.246,4.366,4.366,0,0,1,2.793-.856h.093c.438,0,.8.007,1.134.007.407,0,.779,0,1.137-.011h.022a.375.375,0,0,1,.259.076A.389.389,0,0,1,1151.613,738.216Z" transform="translate(-22.137 -114.476)" fill="#2e9495"/>
    <path id="Path_3365" data-name="Path 3365" d="M1217.889,770.867a.425.425,0,0,1-.081.317.387.387,0,0,1-.286.082h-.024c-.274,0-.56-.006-.9-.006l-.674,0h-.673c-.454,0-.763,0-1.041-.008h-.09a4.889,4.889,0,0,0-2.592.737.534.534,0,0,1-.216.1.068.068,0,0,1-.048-.018.391.391,0,0,1-.045-.23c.008-2.932.005-5.9,0-8.414a.633.633,0,0,1,.222-.483,4.119,4.119,0,0,1,2.883-1.133c.287,0,.593-.006.959-.006h1.251c.386,0,.706,0,1-.006h.021a.37.37,0,0,1,.252.075.4.4,0,0,1,.075.3c-.006,1.092,0,2.219,0,3.214v1.151c0,.385,0,.768,0,1.155v.229C1217.881,768.887,1217.88,769.886,1217.889,770.867Z" transform="translate(-87.294 -136.19)" fill="#2e9495"/>
    <path id="Path_3366" data-name="Path 3366" d="M1133.987,772.081a.062.062,0,0,1-.048.018.448.448,0,0,1-.2-.085,4.909,4.909,0,0,0-2.637-.75h-.117c-.336.008-.677.01-1.072.01l-.7,0h-.034l-.67,0c-.255,0-.51,0-.765,0h-.023a.377.377,0,0,1-.279-.08.4.4,0,0,1-.079-.295c.01-1.082.009-2.19.007-3.232v-2.25c0-1.04,0-2.145-.007-3.212a.431.431,0,0,1,.082-.317.364.364,0,0,1,.271-.078h.045c.24.007.488.011.78.011q.352,0,.7,0l.177,0,.522,0c.427,0,.988.007,1.552.059a3.9,3.9,0,0,1,2.4,1.16.47.47,0,0,1,.136.379v1.042c0,2.428,0,4.938,0,7.408A.371.371,0,0,1,1133.987,772.081Z" transform="translate(-11.261 -136.199)" fill="#2e9495"/>
  </g>
</svg>
