<svg xmlns="http://www.w3.org/2000/svg" viewBox="0 0 408.94 408.87"><g id="Layer_2" data-name="Layer 2"><g id="_1" data-name="1"><g id="attendance"><path d="M408.94,170.88c-1.93,5.12-4.69,9.5-10.1,11.62-10.64,4.18-21.67-3.44-21.79-15.3-.16-14.24,0-28.49-.05-42.73,0-9,.05-18.1,0-27.15-.13-19.73-13.71-33.3-33.43-33.45-6.24,0-12.48,0-19.29,0,0,5.63.2,11,0,16.43a15.86,15.86,0,0,1-24.37,13,15.41,15.41,0,0,1-7.45-13.35c-.13-5.17,0-10.35,0-15.8H219.71V76.42c0,12-6,19.29-15.87,19.36s-16.07-7.31-16.07-19.55V64.1H115.89c0,5.12.1,10.38,0,15.63C115.71,87,111.46,92.8,105,94.93A15.87,15.87,0,0,1,84,80.1c-.2-5.28,0-10.57,0-16.65-9.42.46-18.59-.09-27.34,1.56C42.38,67.7,32.93,80.14,32.12,95.11c-.06,1.06,0,2.13,0,3.19q0,122.19,0,244.38c0,13.83,5.38,24.75,18.1,30.73a40,40,0,0,0,16.16,3.36c31.14.31,62.28.18,93.42.13,5.18,0,9.75,1.3,13.33,5.15a15.88,15.88,0,0,1-4.85,25.23c-1.19.57-2.4,1.06-3.61,1.59H56.82a4.77,4.77,0,0,0-1.39-.66C25.4,404.56-.17,377.75,0,342.54.41,261.12.11,179.69.19,98.26A75.77,75.77,0,0,1,1.52,83.21C7.62,53.39,32.89,32.53,63.36,32c6.74-.13,13.49,0,20.63,0,0-5.69-.16-11,0-16.27a15.92,15.92,0,0,1,31.84.38c.12,5.25,0,10.51,0,15.65h71.88c0-5,0-9.74,0-14.5.09-10.1,6.75-17.22,16-17.19s15.83,7.16,15.91,17.3c0,4.76,0,9.51,0,14.37h72.66c0-4.88,0-9.51,0-14.14C292.44,7.12,299.06-.07,308.46,0s15.76,7.2,15.84,17.37c0,4.74,0,9.49,0,14.6,7.87,0,15.31-.34,22.71.06,25.22,1.39,43.89,13.41,55.27,35.91,3.22,6.39,4.49,13.76,6.65,20.68Z"/><path d="M228.49,408.87c-2.8-1.69-6.06-2.93-8.3-5.18-4.77-4.76-5.25-10.7-3.31-17,6.1-19.93,12-39.93,18.28-59.81a24.13,24.13,0,0,1,5.73-9.36q42.75-43,85.84-85.72c13.74-13.59,30.32-18,48.76-12.12S405,238.8,408.32,258.1a6.88,6.88,0,0,0,.62,1.43v11.18c-2.29,15.84-12.15,26.83-23.09,37.49-21.54,21-43.22,41.86-63.7,63.84C310.3,384.75,297,392.7,280.07,396.29c-15.27,3.25-30.14,8.32-45.19,12.58Zm95-129.32q-28.67,28.84-57.34,57.73a5.3,5.3,0,0,0-1.4,1.9c-3.07,10-6.08,19.95-9.28,30.54,10.12-2.79,19.57-5.28,28.94-8.07a14.73,14.73,0,0,0,6-3.52q26.82-26.5,53.42-53.23c.89-.9,1.72-1.87,2.43-2.65Zm23.67-23,22.34,22.33c8.64-6.87,10.06-17.2,3.21-24.65S355.28,247.63,347.14,256.58Z"/><path d="M115.88,167.71a15.94,15.94,0,1,1-16-16A16,16,0,0,1,115.88,167.71Z"/><path d="M185.34,167.85a15.94,15.94,0,1,1-15.87-16.11A16,16,0,0,1,185.34,167.85Z"/><path d="M254.81,167.71a15.94,15.94,0,1,1-16-16A16,16,0,0,1,254.81,167.71Z"/><path d="M308.46,151.74a15.95,15.95,0,1,1-16.06,15.92A16,16,0,0,1,308.46,151.74Z"/><path d="M115.88,237.19a15.94,15.94,0,1,1-16-16A16,16,0,0,1,115.88,237.19Z"/><path d="M169.41,221.22a15.95,15.95,0,1,1-15.95,16A16,16,0,0,1,169.41,221.22Z"/><path d="M238.78,221.22a15.95,15.95,0,1,1-15.85,16.14A16,16,0,0,1,238.78,221.22Z"/><path d="M100,290.7a15.95,15.95,0,1,1-16,16A16,16,0,0,1,100,290.7Z"/><path d="M169.22,290.7a15.95,15.95,0,1,1-15.76,16.22A16,16,0,0,1,169.22,290.7Z"/></g></g></g></svg>