<svg xmlns="http://www.w3.org/2000/svg" width="30.846" height="27.55" viewBox="0 0 30.846 27.55">
  <g id="Group_7226" data-name="Group 7226" transform="translate(-713.754 -369.229)">
    <path id="Path_3289" data-name="Path 3289" d="M744.02,369.23h13.469c.76,0,1.154.282,1.157.823s-.421.884-1.175.868c-.368-.007-.469.119-.468.477q.015,7.584,0,15.167c0,.341.093.5.446.45a1.66,1.66,0,0,1,.276,0,.852.852,0,1,1-.015,1.7c-.487.009-.974.006-1.461.005l-7.9,0a2.53,2.53,0,0,1-.355-.012.864.864,0,0,1-.749-.876.834.834,0,0,1,.778-.8,3.846,3.846,0,0,1,.395-.008c2.133,0,4.266-.008,6.4.007.372,0,.5-.1.5-.485q-.017-7.564,0-15.128c0-.391-.136-.485-.5-.485q-10.783.013-21.566,0c-.406,0-.512.125-.508.519.02,1.672.011,3.344.006,5.016a.863.863,0,0,1-.821.929.878.878,0,0,1-.872-.892c-.007-.118,0-.237,0-.355q0-2.33,0-4.661c0-.536,0-.534-.542-.55a1.821,1.821,0,0,1-.39-.045.809.809,0,0,1-.649-.939.78.78,0,0,1,.811-.706c.737-.013,1.474-.006,2.212-.006Z" transform="translate(-14.046 0)" fill="#22577a"/>
    <path id="Path_3290" data-name="Path 3290" d="M713.764,490.826a5.724,5.724,0,0,1,11.081-2.432c.14.388.15.4.418.076q2.716-3.237,5.425-6.48,2.1-2.514,4.209-5.026a.851.851,0,0,1,1.277-.208.866.866,0,0,1,.031,1.295q-4.838,5.786-9.681,11.569c-.3.353-.579.718-.894,1.054a1.51,1.51,0,0,0-.464,1.2.784.784,0,0,1-.779.9.821.821,0,0,1-.9-.87c-.016-.513,0-1.027-.006-1.54a4,4,0,0,0-7.954-.583,19.417,19.417,0,0,0-.06,2.05c-.015.6-.3.936-.825.943s-.859-.348-.873-.95C713.758,491.518,713.764,491.215,713.764,490.826Z" transform="translate(0 -95.994)" fill="#22577a"/>
    <path id="Path_3291" data-name="Path 3291" d="M732.409,460.989a4.189,4.189,0,1,0,4.186,4.17A4.168,4.168,0,0,0,732.409,460.989Zm-.042,6.678a2.463,2.463,0,0,1-2.427-2.53,2.4,2.4,0,0,1,2.517-2.417,2.475,2.475,0,0,1,2.437,2.492A2.512,2.512,0,0,1,732.367,467.667Z" transform="translate(-12.924 -82.076)" fill="#22577a"/>
    <path id="Path_3292" data-name="Path 3292" d="M749.613,479.88a2.512,2.512,0,0,1-2.528,2.455,2.463,2.463,0,0,1-2.426-2.53,2.4,2.4,0,0,1,2.517-2.417A2.475,2.475,0,0,1,749.613,479.88Z" transform="translate(-27.642 -96.743)" fill="#38a3a5"/>
    <path id="Path_3293" data-name="Path 3293" d="M813.254,447.383H807.1a3.506,3.506,0,0,1-.394-.009.843.843,0,0,1-.043-1.674,2.754,2.754,0,0,1,.433-.016h12.316c.746,0,1.179.323,1.166.868s-.429.831-1.161.831Z" transform="translate(-82.448 -68.385)" fill="#38a3a5"/>
    <path id="Path_3294" data-name="Path 3294" d="M842.266,416.694q-2.329,0-4.659,0a1.009,1.009,0,0,1-.737-.218.8.8,0,0,1-.261-.822.835.835,0,0,1,.681-.639,2.439,2.439,0,0,1,.472-.023H846.8c.079,0,.158,0,.237,0a.9.9,0,0,1,.949.851.878.878,0,0,1-.946.847C845.451,416.7,843.858,416.694,842.266,416.694Z" transform="translate(-109.862 -40.934)" fill="#38a3a5"/>
  </g>
</svg>
